<?xml version="1.0" encoding="utf-8"?>
<svg viewBox="956.27 434.49 578.581 301.02" xmlns="http://www.w3.org/2000/svg">
  <defs>
    <style>.cls-1{fill:#fff;}.cls-2{fill:#a7a9ab;}.cls-3{fill:#388048;}</style>
  </defs>
  <path class="cls-2" d="M1473.76,735.51h-490.01c-9.68,0-17.02-8.74-15.34-18.28l45.51-258.08c1.31-7.44,7.78-12.87,15.34-12.87h490.01c9.68,0,17.02,8.74,15.34,18.28l-45.51,258.08c-1.31,7.44-7.78,12.87-15.34,12.87Z"/>
  <path class="cls-1" d="M1461.86,723.72h-490.01c-9.68,0-17.02-8.74-15.34-18.28l45.51-258.08c1.31-7.44,7.78-12.87,15.34-12.87h490.01c9.68,0,17.02,8.74,15.34,18.28l-45.51,258.08c-1.31,7.44-7.78,12.87-15.34,12.87Z" style=""/>
  <g>
    <path class="cls-3" d="M1068.93,568.63c-.42-.97-1.13-1.02-1.67-1.28-1.91-.92-3.78-1.89-5.41-3.25-2.9-2.41-3.32-5.36-1.07-8.03,2.16-2.56,5.05-4.07,8.18-5.14,1.21-.41,1.78,.06,1.29,1.34-.51,1.32-.95,2.63-.95,4.07,0,2.39,.92,3.83,3.17,4.69,4.37,1.67,8.77,1.4,13.16,.04,3.72-1.15,7.38-2.51,11.19-3.4,8.15-1.92,16.25-1.46,24.32,.46,9.2,2.18,17.83,5.89,26.2,10.2,.56,.29,1.57,.43,1.41,1.31-.12,.66-1.02,.67-1.62,.83-1.54,.42-3.1,.79-4.65,1.17-.69,.17-1.41,.37-2.08,.08-4.07-1.77-7.35,.14-10.52,2.28-2.75,1.85-5.39,3.89-8.09,5.81-1.46,1.04-3.06,1.85-4.73,2.51-3.63,1.43-7.23,1.59-10.74-.31-4.01-2.16-7.97-2.52-12.03-.11-.88,.52-2.22,1.32-2.9,.14-.68-1.19,.6-2.07,1.53-2.72,7.79-5.45,16.38-9.11,25.61-11.34,5-1.2,10.08-1.56,15.17-1.57,.15-.31-.03-.42-.19-.46-6.79-1.86-13.61-3.47-20.75-3.37-7.56,.11-14.61,2.34-21.58,4.89-3.78,1.39-7.49,2.95-11.22,4.46-.49,.2-1.32,.22-1.27,.93,.04,.62,.8,.77,1.32,.97,2.9,1.14,5.78,.68,8.65-.15,1.23-.36,2.43-.83,3.73-.79,.67,.02,1.61-.25,1.82,.6,.18,.73-.72,.93-1.25,1.25-6.73,4.03-13.95,5.43-21.74,4.3-6.19-.9-12.14-2.48-17.71-5.36-1.9-.98-3.57-2.24-4.81-4.01-.4-.57-.77-1.25-.34-1.95,.46-.75,1.23-.54,1.91-.39,3.81,.84,7.67,1.46,11.57,1.59,2.32,.08,4.64-.17,7.09-.28Z"/>
    <path class="cls-3" d="M1198.62,587.71c2.11,1.08,4.06,1.59,6.03,1.99,4.16,.85,8.35,1.05,12.59,.55,1.21-.14,3.08-.85,3.62,.68,.52,1.5-1.22,2.37-2.29,3.19-3.6,2.76-7.9,3.18-12.21,3.17-5.92-.01-11.47-1.71-16.79-4.22-.29-.14-.6-.24-.86-.42-.61-.39-1.66-.65-1.28-1.59,.33-.82,1.24-.4,1.89-.25,2.93,.68,5.89,1.06,8.91,1.11-8.65-2.43-17.3-4.82-25.67-8.95,.3,1.26,1.01,1.97,1.56,2.74,3.88,5.39,7.78,10.76,11.66,16.15,.35,.49,1.11,.97,.72,1.63-.4,.68-1.18,.21-1.77,.14-6.22-.79-12.26-.29-17.98,2.46-.9,.43-1.55,.21-2.25-.39-2.47-2.13-4.95-4.24-7.45-6.32-1.18-.98-1.1-1.67,.27-2.4,2.64-1.4,5.43-2.16,8.42-2.38,2.27-.17,2.37-.44,1.25-2.4-2.58-4.55-5.15-9.11-7.81-13.62-.7-1.19-.55-1.85,.55-2.67,8.24-6.07,9.14-17.46,5.07-25.61-.45-.89-1.15-1.66-1.74-2.49,.08-.07,.2-.23,.23-.21,4.13,2.04,8.37,3.99,11.45,7.52,3.85,4.41,4.3,9.65,2.89,15.13-.48,1.86-1.22,3.63-2.24,5.27-.55,.88-.46,1.52,.55,1.98,11.5,5.3,23.44,7.07,35.88,4.29,4.39-.98,8.14-3.33,11.44-6.36,1.45-1.34,2.4-1.25,3.53,.39,1.68,2.42,1.33,4.47-1.15,6.26-3.32,2.4-7.26,3.09-11.14,3.87-4.9,.98-9.89,1.19-14.86,1.55-.23,.02-.45,.09-1.01,.22Z"/>
    <path class="cls-3" d="M1151.47,599.17c0,2.93-.03,5.86,.01,8.79,.02,1.21-.44,2.04-1.46,2.69-2.88,1.81-6.02,2.37-9.36,2.04-.72-.07-1.33-.41-1.88-.88-2.38-2.02-4.78-4.02-7.16-6.04-.42-.36-1.14-.73-.95-1.32,.24-.78,1.09-.48,1.68-.46,2.22,.1,4.29-.41,6.31-1.31,1.39-.62,2.01-1.47,1.98-3.07-.1-4.96,.03-9.93-.07-14.9-.03-1.72,.57-2.51,2.26-2.86,5.72-1.21,4.21-1.51,6.75,3.01,1.45,2.59,2.14,5.24,1.92,8.2-.15,2.03-.03,4.07-.03,6.11Z"/>
    <path class="cls-3" d="M1271.68,568.12c0,1.34,.02,2.68,0,4.01-.01,.75,.11,1.66-.93,1.82-.98,.15-2.15,.48-2.82-.53-.45-.68-.64-.84-1.42-.44-6.65,3.4-13.09,.06-14.1-7.35-.46-3.35-.12-6.61,1.99-9.48,4.06-5.53,12.15-4.62,15.66-1.72,.63,.52,1.53,1.1,.63,1.98-.81,.79-1.36,2.52-3.02,1.49-1.57-.97-3.2-1.53-5.06-1.45-2.6,.11-4.57,1.47-5.23,3.97-.68,2.58-.7,5.18,.84,7.55,1.85,2.85,6.75,3.02,8.35,.29,.93-1.58,.62-2.19-1.17-2.25-.57-.02-1.15,0-1.72,0-2.24-.04-2.71-.61-2.47-2.76,.1-.93,.53-1.4,1.45-1.4,2.49,0,4.98,0,7.47,0,1.14,0,1.59,.59,1.56,1.68-.03,1.53,0,3.06,0,4.59Z"/>
    <path class="cls-3" d="M1253.56,592.33c0-2.87,.04-5.73-.02-8.6-.03-1.44,.48-2.09,2-2.05,2.74,.07,5.49-.01,8.24,.04,3.18,.06,5.43,1.72,6.35,4.58,.91,2.85,.09,6.08-2.34,7.69-1.52,1.01-1.36,1.77-.45,3,1.06,1.43,1.99,2.96,2.97,4.46,.71,1.08,.39,1.59-.89,1.71-1.99,.19-3.6-.12-4.57-2.19-.7-1.49-1.82-2.77-2.62-4.21-.75-1.34-1.89-1.43-3.13-1.14-1.24,.29-.83,1.4-.89,2.23-.06,.89,0,1.78-.02,2.67-.02,2.42-1.18,3.24-3.55,2.57-1.09-.31-1.07-1.14-1.08-1.97-.02-2.93,0-5.86,0-8.79Zm7.83-.98c.78-.04,1.56-.03,2.31-.14,1.04-.15,1.75-.78,2-1.81,.27-1.11,.17-2.16-.77-2.98-.84-.73-5.17-1.2-6.12-.63-.2,.12-.45,.34-.48,.54-.2,1.45-.48,3.01,.1,4.34,.53,1.21,1.96,.43,2.95,.68Z"/>
    <path class="cls-3" d="M1374.4,595.15c0-1.66,0-3.32,0-4.97,0-2.6,1.42-3.57,3.75-2.4,.82,.42,1.3,.4,2.05-.01,2.02-1.12,4.1-1.05,5.96,.29,.98,.7,1.67,.86,2.68,.08,1.85-1.43,3.93-1.46,5.96-.44,1.95,.98,2.43,2.79,2.4,4.84-.04,2.93-.06,5.87,0,8.8,.03,1.49-.73,1.86-2.03,1.83-1.24-.03-2.35-.09-2.33-1.76,.02-2.49,0-4.97-.01-7.46,0-1.48-.43-2.69-2.14-2.87-1.41-.14-2.52,.93-2.61,2.7-.12,2.35-.12,4.72-.05,7.07,.05,1.57-.38,2.35-2.13,2.35-1.8,0-2.35-.76-2.29-2.44,.09-2.23,.02-4.46,.02-6.69,0-1.54-.35-2.86-2.21-2.99-1.46-.1-2.52,1.05-2.59,2.95-.09,2.36-.11,4.72-.02,7.08,.06,1.64-.69,2.09-2.19,2.08-1.48-.02-2.28-.47-2.22-2.1,.08-1.97,.02-3.95,.02-5.93Z"/>
    <path class="cls-3" d="M1291.5,566.17c0-1.78-.03-3.57,0-5.35,.02-.79-.32-1.84,.67-2.2,1.06-.39,2.37-.62,3.25,.27,.67,.67,.96,.41,1.55,.04,2.3-1.43,4.61-1.34,6.72,.43,.81,.68,1.22,.51,1.91-.05,1.93-1.57,4.1-1.73,6.29-.65,2.06,1.01,2.44,2.93,2.42,5.02-.03,2.87-.05,5.73,0,8.6,.03,1.49-.75,1.85-2.04,1.82-1.23-.02-2.35-.06-2.34-1.75,.02-2.48,0-4.97-.01-7.45,0-1.49-.43-2.74-2.16-2.81-1.76-.07-2.54,1.1-2.6,2.67-.1,2.48-.11,4.97-.05,7.45,.04,1.62-.83,1.9-2.17,1.89-1.32,0-2.25-.27-2.22-1.88,.04-2.42,0-4.84,0-7.26,0-1.47-.35-2.71-2.09-2.88-1.52-.15-2.61,.9-2.7,2.8-.11,2.42-.11,4.84-.04,7.26,.05,1.56-.69,1.98-2.1,1.97-1.41-.01-2.37-.3-2.31-2,.07-1.97,.02-3.95,.01-5.92Z"/>
    <path class="cls-3" d="M1156.47,561.85c-.05,1.35-.42,3.02-1.21,4.58-.63,1.23-1.39,1.56-2.76,.8-6.59-3.66-13.28-7.12-20.21-10.1-3.58-1.54-7.22-2.92-11.14-3.39-.88-.1-1.93-.29-2.09-1.35-.18-1.21,.79-1.83,1.75-2.23,2.95-1.25,5.81-.4,8.55,.68,3.51,1.39,6.78,3.29,9.87,5.45,1.15,.8,2.23,1.01,3.58,.63,2.03-.57,4.1-.97,6.15-1.47,5.07-1.22,7.5,.71,7.51,6.39Z"/>
    <path class="cls-3" d="M1354.18,592.29c0,2.86,.01,5.73,0,8.59,0,.73,.21,1.66-.68,2.02-1.02,.41-2.24,.6-3.09-.16-.67-.6-.99-.6-1.73-.19-3.65,2.04-7.76,.46-9.2-3.46-1.01-2.75-1.03-5.48,.21-8.17,1.6-3.45,5.2-4.83,8.62-3.16,1.28,.63,1.55,.35,1.5-.92-.05-1.27,.06-2.55-.02-3.82-.11-1.62,.65-2.08,2.16-2.1,1.61-.02,2.32,.48,2.27,2.19-.1,3.05-.03,6.11-.03,9.16Zm-10.81,3.05c0,.89,.05,1.77,.51,2.58,1.11,1.99,3.51,2.32,4.94,.67,1.4-1.61,1.41-4.96,.02-6.57-1.44-1.67-3.88-1.39-4.93,.56-.47,.87-.55,1.81-.54,2.77Z"/>
    <path class="cls-3" d="M1318.64,587.05c4.83-.05,7.36,3.42,7.43,8.13,.02,1.16-.62,1.56-1.69,1.55-2.43-.01-4.86,0-7.29,.02-.54,0-1.27-.18-1.47,.55-.17,.63,.39,1.05,.82,1.41,1.74,1.43,3.67,1.16,5.39,.18,1.75-.99,2.29,.17,2.97,1.23,.84,1.32-.41,1.67-1.15,2.12-3.46,2.11-8.31,1.58-10.81-1.13-2.51-2.73-2.7-8.11-.38-11.24,1.43-1.93,3.42-2.84,6.19-2.82Z"/>
    <path class="cls-3" d="M1326.31,567.69c-1.34,0-2.69-.04-4.03,.01-1.06,.04-1.15,.58-.6,1.38,1.14,1.66,3.26,1.97,5.92,.81,.76-.33,1.4-.83,2.21,.04,1.47,1.58,1.4,2.32-.5,3.35-3.81,2.06-8.02,1.51-10.73-1.41-2.36-2.54-2.62-7.53-.56-10.75,1.76-2.75,5.9-3.94,9.25-2.66,3.03,1.16,5.03,4.64,4.58,7.86-.13,.96-.64,1.32-1.53,1.33-1.34,0-2.68,0-4.03,0v.04Z"/>
    <path class="cls-3" d="M1387.02,567.67c-1.28,0-2.56,0-3.84,0-.44,0-.97-.04-1.15,.47-.17,.48,.22,.83,.5,1.17,1.28,1.5,3.18,1.71,5.82,.5,.93-.43,1.59-.57,2.31,.36,1.22,1.57,1.16,2.08-.64,3.07-3.79,2.08-8.01,1.56-10.74-1.33-2.39-2.53-2.69-7.47-.64-10.74,1.73-2.77,5.84-3.99,9.22-2.75,2.97,1.1,5.04,4.61,4.66,7.82-.11,.94-.54,1.38-1.47,1.39-1.34,0-2.68,0-4.03,0v.03Z"/>
    <path class="cls-3" d="M1283.65,567.67c-1.21,0-2.43-.01-3.64,0-.43,0-.98-.08-1.19,.41-.24,.57,.22,.95,.56,1.31,1.28,1.38,3.22,1.54,5.69,.45,.78-.35,1.43-.74,2.2,.13,1.43,1.61,1.35,2.28-.61,3.33-4.2,2.24-9.27,1.18-11.41-2.39-2.31-3.85-1.2-9.65,2.35-11.8,2.75-1.67,5.63-1.6,8.38-.01,2.62,1.52,3.22,4.12,3.3,6.91,.03,1.1-.47,1.66-1.6,1.65-1.34-.02-2.68,0-4.03,0v.02Z"/>
    <path class="cls-3" d="M1342.84,567.67c-1.21,0-2.43-.01-3.64,0-.43,0-.98-.12-1.19,.39-.24,.56,.2,.96,.53,1.34,1.21,1.37,3.21,1.56,5.68,.44,.91-.41,1.58-.63,2.32,.32,1.24,1.58,1.18,2.09-.6,3.08-3.78,2.1-8.13,1.57-10.73-1.31-2.38-2.63-2.61-7.76-.47-10.93,1.81-2.7,5.73-3.78,9.11-2.52,3.02,1.13,5.01,4.61,4.56,7.85-.13,.96-.64,1.33-1.52,1.33-1.34,0-2.68,0-4.03,0v.02Z"/>
    <path class="cls-3" d="M1370.64,594.86c0,1.02,0,2.04,0,3.06,0,.6,.12,1.16,.79,1.38,1.48,.47,1.15,1.68,1.03,2.71-.15,1.23-1.21,1.18-2.09,1.13-1.28-.08-2.7,.48-3.73-.87-.37-.48-.82,.05-1.16,.28-1.61,1.07-3.33,1.18-5.15,.7-2.17-.57-3.36-1.77-3.61-3.72-.28-2.17,.58-3.84,2.58-4.89,1.66-.88,3.5-1.18,5.31-1.58,.55-.12,1.46-.02,1.4-.95-.05-.82-.75-1.16-1.46-1.3-1.51-.31-2.96,.02-4.26,.74-1.59,.88-2.24-.13-2.83-1.24-.7-1.32,.46-1.65,1.27-2.08,2.49-1.3,5.16-1.46,7.85-.95,2.4,.46,3.77,2.06,3.98,4.51,.09,1.01,.01,2.04,.01,3.06h.05Zm-7.4,5.15c.46-.15,1.1-.25,1.63-.56,.94-.54,1.63-1.46,1.23-2.51-.42-1.11-1.42-.27-2.16-.2-.49,.05-.98,.24-1.45,.42-.73,.27-1.49,.63-1.33,1.58,.17,1.02,1.09,1.09,2.07,1.27Z"/>
    <path class="cls-3" d="M1279.72,587.06c4.74,.03,8.01,3.4,7.93,8.2-.07,4.8-3.39,8.23-7.98,8.25-4.6,.02-8.01-3.47-8-8.21,0-5.01,3.19-8.27,8.06-8.25Zm-3.46,8.12c0,2.62,1.28,4.31,3.31,4.36,2.05,.05,3.41-1.61,3.45-4.22,.04-2.56-1.3-4.31-3.31-4.36-2.05-.04-3.44,1.67-3.45,4.22Z"/>
    <path class="cls-3" d="M1350.61,566.05c0-1.72-.03-3.44,.01-5.16,.02-.84-.35-1.97,.78-2.32,1.01-.31,2.28-.55,3.09,.28,.71,.74,1.07,.45,1.72,.07,4.22-2.43,8.32-.1,8.37,4.75,.03,2.67-.06,5.35,.03,8.02,.06,1.66-.4,2.45-2.24,2.43-1.89-.02-2.23-.96-2.18-2.54,.07-2.16,.04-4.33,0-6.5-.03-2.09-.76-3.05-2.34-3.06-1.85-.02-2.66,1.2-2.78,2.79-.16,2.22-.15,4.46-.08,6.68,.05,1.63-.19,2.65-2.23,2.63-2.07-.03-2.23-1.16-2.18-2.73,.06-1.78,.01-3.57,.01-5.35Z"/>
    <path class="cls-3" d="M1295.88,603.26c-3.68-.03-4.96-1.28-5.07-4.64-.05-1.53-.03-3.06-.01-4.58,.02-1.37,.16-2.66-1.8-2.97-.99-.15-.83-1.29-.83-2.11,0-.78,.3-1.4,1.19-1.45,1.2-.07,1.4-.8,1.45-1.81,.07-1.43,2.21-3.44,3.65-3.57,.75-.07,.86,.43,.89,.95,.05,.76,.07,1.53,.03,2.29-.05,1.22,.15,2.14,1.7,2.14,1.23,0,1.35,.93,1.36,1.89,.01,1-.24,1.82-1.42,1.85-1.41,.03-1.67,.87-1.63,2.03,.04,1.08,.05,2.17,0,3.25-.08,1.61,.07,2.9,2.2,2.98,1.16,.04,.95,1.15,.97,1.95,.03,.82-.14,1.56-1.14,1.68-.63,.08-1.27,.1-1.54,.11Z"/>
    <path class="cls-3" d="M1302.21,596.14c0-.89-.03-1.78,0-2.68,.05-1.18-.07-2.11-1.59-2.3-1.22-.15-1.04-1.25-1.06-2.13-.02-.88,.3-1.51,1.28-1.54,1.1-.04,1.34-.68,1.39-1.64,.09-1.66,1.91-3.48,3.5-3.68,.62-.08,.82,.22,.84,.73,.03,.64,.06,1.28,.03,1.91-.08,1.5-.09,2.83,2.06,2.77,1.04-.03,.99,.97,1,1.74,.02,.87-.05,1.83-1.15,1.86-1.85,.04-1.99,1.14-1.91,2.55,.06,.95,.06,1.91,0,2.87-.11,1.66,.12,2.91,2.26,2.86,1.17-.03,1.14,.97,1.15,1.82,.01,.99-.21,1.79-1.39,1.9-3.43,.32-6.64,.18-6.4-5.12,.03-.64,0-1.27,0-1.91Z"/>
    <path class="cls-3" d="M1368.65,567.01c0-.95-.02-1.91,0-2.86,.03-1.06-.15-1.87-1.45-2.01-1.22-.13-1.19-1.12-1.21-2.03-.01-.93,.22-1.66,1.32-1.71,1.12-.04,1.29-.75,1.35-1.68,.08-1.49,2.12-3.5,3.56-3.63,.64-.06,.76,.34,.78,.81,.03,.7,.07,1.4,.02,2.1-.11,1.44,.12,2.48,1.96,2.47,1.16,0,1.09,1.02,1.1,1.86,.01,.87-.04,1.81-1.18,1.8-1.74-.02-1.96,.98-1.88,2.36,.06,1.08,.04,2.16,0,3.24-.06,1.68,.3,2.93,2.39,2.79,1.05-.07,1.02,.75,1.02,1.46,0,.87,.17,1.87-1.09,2.1-3.31,.61-6.88,.07-6.69-4.78,.03-.76,0-1.53,0-2.29Z"/>
    <path class="cls-3" d="M1332.45,589.41c1.32-1.35,2.56-2.09,4.12-2.14,1.13-.03,1.88,.45,1.8,1.68-.07,1.09,.54,2.5-1.41,2.76-3.02,.4-4.16,1.75-4.25,4.8-.05,1.52-.08,3.05,0,4.57,.08,1.62-.71,2.09-2.2,2.1-1.46,.01-2.26-.36-2.22-2.03,.08-3.81,.02-7.63,.03-11.44,0-1.01-.16-2.16,1.39-2.2,1.26-.04,2.69-.35,2.76,1.91Z"/>
    <path class="cls-3" d="M1035.66,556.23c1.43,.12,2.67,.73,3.77,1.65,1.7,1.43,2.82,3.25,3.53,5.34,.09,.27,.12,.66,0,.89-.19,.34-.6,.2-.85,.03-2.11-1.54-4.67-1.97-7.02-2.92-1.33-.54-2.26-1.55-2-3.1,.22-1.36,1.35-1.73,2.58-1.88Z"/>
  </g>
</svg>