<?xml version="1.0" encoding="utf-8"?>
<!-- Generator: Adobe Illustrator 26.3.1, SVG Export Plug-In . SVG Version: 6.00 Build 0)  -->
<svg version="1.1" id="Laag_1" xmlns="http://www.w3.org/2000/svg" xmlns:xlink="http://www.w3.org/1999/xlink" x="0px" y="0px"
	 viewBox="0 0 325.5 250.5" style="enable-background:new 0 0 325.5 250.5;" xml:space="preserve">
<style type="text/css">
	.st0{fill:#C1593B;}
	.st1{fill:#F6F6F6;}
	.st2{fill:#FFFFFF;}
</style>
<g>
	<ellipse class="st0" cx="163.1" cy="227.6" rx="161.4" ry="21.9"/>
	<path class="st0" d="M163.1,250.5c-43.2,0-83.7-2.3-114.3-6.4c-22-3-48.1-8.3-48.1-16.5s26.2-13.5,48.1-16.5
		c30.5-4.1,71.1-6.4,114.3-6.4c43.2,0,83.7,2.3,114.3,6.4c22,3,48.1,8.3,48.1,16.5s-26.2,13.5-48.1,16.5
		C246.8,248.3,206.3,250.5,163.1,250.5z M163.1,206.7c-43.1,0-83.6,2.3-114,6.4C6.1,219,2.7,225.7,2.7,227.6s3.3,8.7,46.4,14.5
		c30.4,4.1,70.9,6.4,114,6.4c43.1,0,83.6-2.3,114-6.4c43.1-5.8,46.4-12.6,46.4-14.5s-3.3-8.7-46.4-14.5
		C246.7,209,206.2,206.7,163.1,206.7z"/>
</g>
<g>
	<path class="st1" d="M98.4,227.3c-10.8,0-21.6-1.3-28.6-3.9c-1.9-0.7-3.1-2.6-2.9-4.6c0.2-2.4,0.8-6.2,2.3-10.7l0.2-0.8l0.8,0.1
		c0.4,0,37.5,3.6,66.7-4.2c7.3-2,33-9.3,59.9-20.7c26.3-11.3,44.9-22.7,55.3-34l0.5-0.6l0.7,0.4c0.1,0,2,1.2,3.9,3
		c1.4,1.4,2.1,3.3,2,5.3c-0.1,2-1,3.9-2.5,5.2c-7.1,6-26.7,21.4-55.6,32.8c-9.9,3.9-19,7.6-27,10.9c-22.1,9-38.1,15.5-50,18.8
		C117.1,226.3,107.7,227.3,98.4,227.3z M70.9,209.5c-1.2,4-1.7,7.4-2,9.5c-0.1,1.1,0.5,2.1,1.5,2.5c12.8,4.6,38.1,5.1,53.1,0.9
		c11.9-3.3,27.8-9.8,49.8-18.7c8-3.3,17.1-6.9,27-10.9c28.6-11.4,48-26.5,55-32.5c1.1-0.9,1.8-2.3,1.8-3.8c0.1-1.4-0.5-2.8-1.5-3.8
		c-1-1-2.1-1.8-2.8-2.3c-10.6,11.3-29.3,22.7-55.4,33.8c-27,11.5-52.9,18.9-60.1,20.8C110.4,212.4,76.6,210,70.9,209.5z"/>
	<path class="st2" d="M81.9,171.9c-3,0-4.8-0.2-4.9-0.2l-1.1-0.1l0.2-1.1c0.4-1.9-0.7-5.5-3-9.8c-6.3,0.9-11.8-2.1-15.4-8.5
		c-2.4-4.3-2.1-8.6-1.8-12.7c0.2-3.1,0.4-6.4-0.5-9.7c-0.4-1.4-0.8-3.2-1.3-5.2c-2.3-9.7-6.3-25.9-15.6-37.7
		C26.8,71.9,2.8,18.3,0.2,1.2L0,0h99.9l0.1,0.8c0,0.2,4.5,24.7,6.6,41.9c0.8,6.2,2.9,12.3,6.2,18c2.9,5,4.8,9.9,5.4,14.5
		c0.3,2,0.5,4,0.7,6c1,9.2,2,17.8,8.1,21.9c0.7,0.5,1.4,0.9,2.2,1.4c7.2,4.6,15.4,9.7,8.8,24.1c-0.5,1.1-1.6,2-2.8,2.2h0
		c-0.1,0-0.2,0-0.3,0.1c1.7,6,3.2,12.4,3.2,12.5l0.1,0.4l-0.2,0.4C121,169.2,93.1,171.9,81.9,171.9z M78.2,169.8
		c6,0.4,38.9,1.2,58-26.4c-0.4-1.6-1.9-7.7-3.4-13.1l-0.3-1.1l1.1-0.1c0.5-0.1,0.9-0.1,1.3-0.2c0.6-0.1,1.2-0.6,1.4-1.1
		c5.9-12.8-0.9-17.1-8-21.6c-0.7-0.5-1.5-0.9-2.2-1.4c-7-4.6-8-13.7-9-23.3c-0.2-1.9-0.4-3.9-0.7-5.9c-0.6-4.3-2.3-9-5.1-13.8
		c-3.5-5.9-5.7-12.2-6.5-18.7C102.7,27.6,99,6.4,98.2,2H2.4C5.7,19.7,29,71.5,40,85.6c9.6,12.2,13.6,28.7,16,38.5
		c0.5,2,0.9,3.8,1.3,5.1c1,3.7,0.8,7.1,0.6,10.4c-0.3,4-0.5,7.8,1.6,11.6c3.4,6,8.2,8.6,14,7.4l0.7-0.1l0.3,0.6
		C76.3,162.3,78.2,166.6,78.2,169.8z"/>
	<path class="st1" d="M74.9,182.5c-0.1,0-0.1,0-0.1,0l-0.8,0l-0.2-0.7c-2-7.8,2.4-11.6,2.6-11.8l0.3-0.3l0.4,0
		c25.5,1.9,44.6-9.2,53.3-19.3c0.2-0.3,0.6-0.6,0.9-1c1.4-1.6,3.5-4,4.8-6l-2.1-8.1l0-0.1c0-0.2-0.2-0.5-0.2-0.8
		c-0.3-1-0.6-1.7-0.2-2.3l0.3-0.4l0.6,0c9.3,0,21.5,8.9,22,9.2l1.3,1l-23.1,12C112,181.9,77.5,182.5,74.9,182.5z M77.5,171.7
		c-0.8,0.9-2.9,3.7-1.9,8.7c5.3-0.1,36.7-2,57.8-28.1l0.1-0.2l20.6-10.7c-3.2-2.2-11.6-7.4-18.4-7.9c0,0,0,0.1,0,0.1
		c0.2,0.7,0.4,1.1,0.4,1.4l2.2,8.5l-0.2,0.4c-1.3,2.2-3.7,4.9-5.2,6.6c-0.3,0.4-0.6,0.7-0.9,1C123.1,162.1,103.5,173.6,77.5,171.7z"
		/>
	<path class="st1" d="M92.7,210.4c-12.7,0-22.4-0.9-22.6-1l-0.8-0.1l-0.1-0.8c-1.4-8.8,1.8-20,3.8-25.9l0,0c0.7-2.1,2.7-2.2,4.3-2.2
		c0.3,0,0.7,0,1-0.1c31.4-2.9,48.1-19.6,53.8-26.6l0.1-0.1c0.4-0.5,0.9-1.1,1.5-1.4c5.4-3.1,12.3-6.6,16-8.4c1-0.5,1.8-0.9,2.2-1.1
		c1.3-0.7,2-1.2,2.5-1.5c0.6-0.4,1.2-0.8,2.1-0.4c13.4,6.5,63,7.6,76.6,2.9c14.1-4.8,20.6,4.8,20.6,4.9l0.4,0.6l-0.5,0.6
		c-13.9,16-45.8,30.3-58.9,35.7c-20.1,8.3-51.7,19.4-74.4,23C111.2,209.9,101.3,210.4,92.7,210.4z M71.1,207.5
		c4.6,0.4,28.8,2.2,49-1c22.6-3.6,53.9-14.6,73.9-22.9c38.1-15.8,53.2-29.8,57.6-34.6c-1.6-1.9-7.1-7.1-17.9-3.5
		c-13.8,4.7-63.9,3.7-77.9-2.9c-0.1,0-0.2,0.1-0.3,0.2c-0.5,0.3-1.3,0.9-2.7,1.6c-0.4,0.2-1.2,0.6-2.3,1.1
		c-3.7,1.8-10.5,5.2-15.9,8.3c-0.4,0.2-0.6,0.6-1,1l-0.1,0.1c-5.9,7.2-22.9,24.3-55.1,27.3c-0.4,0-0.7,0-1.1,0.1
		c-1.7,0.1-2.3,0.2-2.5,0.9C73.4,187.8,70,198.9,71.1,207.5z"/>
	<g>
		<g>
			<path class="st2" d="M79.8,167.2l-2.6-1.5c0.3-0.6,0.7-1.2,1.1-1.8l1.3-0.7c0,0,0.7,0,2,0.1l-0.1,3c-0.4,0-0.8,0-1.1,0
				C80.2,166.6,80,166.9,79.8,167.2z"/>
			<path class="st2" d="M102.7,230.6l-0.1-3c1.3,0,2.6-0.1,3.9-0.2l0.2,3C105.4,230.5,104.1,230.6,102.7,230.6z M98.6,230.6
				c-1.4,0-2.7-0.1-4.1-0.2l0.2-3c1.3,0.1,2.6,0.2,3.9,0.2L98.6,230.6z M110.9,230l-0.4-3l0.7-0.1c1-0.1,2.2-0.3,3.4-0.4l0.3,3
				c-1.2,0.1-2.2,0.3-3.3,0.4L110.9,230z M90.4,230c-1.4-0.2-2.7-0.4-4-0.6l0.5-3c1.3,0.2,2.6,0.4,3.9,0.6L90.4,230z M217,229.6
				c-0.7,0-1.4,0-2,0l0.1-3c1.2,0,2.5,0,4,0l0,3C218.4,229.6,217.7,229.6,217,229.6z M223.2,229.5l-0.1-3c1.3,0,2.6-0.1,4-0.2l0.2,3
				C225.8,229.3,224.5,229.4,223.2,229.5z M211,229.4c-1.1-0.1-2.4-0.1-4-0.2l0.1-3c1.6,0.1,3,0.1,4,0.2L211,229.4z M118.8,229.2
				l-0.2-3c1.3-0.1,2.6-0.2,4-0.3l0.2,3C121.4,229,120,229.1,118.8,229.2z M203,229c-1.3,0-2.6-0.1-4-0.1l0.1-3c1.4,0,2.8,0.1,4,0.1
				L203,229z M231.3,229l-0.2-3c1.3-0.1,2.6-0.2,4-0.3l0.3,3C234,228.8,232.6,228.9,231.3,229z M195,228.8c-1.3,0-2.6-0.1-4-0.1
				l0.1-3c1.4,0,2.7,0.1,4,0.1L195,228.8z M126.7,228.7l-0.1-3c1.3-0.1,2.7-0.1,4-0.2l0.1,3C129.4,228.6,128,228.6,126.7,228.7z
				 M186.9,228.5c-1.3,0-2.7-0.1-4-0.1l0.1-3c1.4,0,2.7,0.1,4,0.1L186.9,228.5z M82.4,228.5c-1.4-0.3-2.7-0.7-4-1.1l0.9-2.9
				c1.2,0.4,2.5,0.7,3.8,1L82.4,228.5z M134.8,228.4l-0.1-3c1.3,0,2.7-0.1,4-0.1l0.1,3C137.4,228.3,136.1,228.4,134.8,228.4z
				 M178.9,228.4c-1.3,0-2.7,0-4-0.1l0-3c1.4,0,2.7,0,4,0.1L178.9,228.4z M239.3,228.3l-0.3-3c1.3-0.1,2.6-0.3,4-0.5l0.4,3
				C242,228,240.7,228.1,239.3,228.3z M170.9,228.2l-4,0l0-3l4,0L170.9,228.2z M142.8,228.2l0-3c1.3,0,2.7,0,4,0l0,3
				C145.4,228.2,144.1,228.2,142.8,228.2z M162.8,228.2c-1.3,0-2.7,0-4,0l0-3c1.3,0,2.7,0,4,0L162.8,228.2z M150.8,228.1l0-3
				c1.3,0,2.7,0,4,0v3C153.5,228.1,152.1,228.1,150.8,228.1z M247.4,227.3l-0.5-3c1.3-0.2,2.6-0.4,3.9-0.7l0.5,3
				C250.1,226.8,248.8,227,247.4,227.3z M74.5,226.1c-1.4-0.6-2.7-1.2-3.8-1.8l1.4-2.6c1,0.5,2.2,1.1,3.5,1.6L74.5,226.1z
				 M255.4,225.8l-0.7-2.9c1.4-0.3,2.6-0.6,3.8-1l0.8,2.9C258.2,225.1,256.8,225.5,255.4,225.8z M263.3,223.5l-1-2.8
				c1.3-0.5,2.5-1,3.5-1.5l1.5,2.6C266.1,222.4,264.8,223,263.3,223.5z M67,221.5c-0.3-0.4-0.5-0.9-0.5-1.4c0-0.1,0-0.2,0-0.4
				c0-0.8,0.2-1.9,0.6-3.4l2.9,0.8c-0.4,1.5-0.5,2.3-0.5,2.7l0,0.1c0-0.1,0-0.2,0-0.2L67,221.5z M270.8,218.9l-2.4-1.9
				c0.1-0.1,0.2-0.3,0.3-0.4c0.1-0.4,0.2-1.3,0.2-2.5l3,0.1c0,1.9-0.3,3.2-0.3,3.3l-0.1,0.4C271.3,218.2,271.1,218.6,270.8,218.9z
				 M71.1,213.3l-2.8-0.9c0.4-1.3,0.9-2.7,1.4-3.8l2.8,1C72,210.7,71.5,212,71.1,213.3z M268.6,210.5c-0.3-1.2-0.7-2.3-1.2-3.3
				l2.6-1.5c0.7,1.2,1.3,2.6,1.6,4.2L268.6,210.5z M72.4,206.7c-1.4,0-1.6-1.2-2.1-5.2l3-0.4c0.3,2.3,0.6,3.7,0.7,3.7l-0.7,0.2
				l0.6,0.8l-1.4-0.5l0.1,1.5C72.5,206.7,72.4,206.7,72.4,206.7z M265.1,204.8c-0.3-0.2-0.6-0.4-1-0.6l-0.7-0.6
				c-0.4-0.7-0.8-1.4-1.3-2.1l2.4-1.7c0.5,0.6,0.9,1.3,1.3,2c0.3,0.2,0.6,0.4,0.9,0.6L265.1,204.8z M259.7,198.6
				c-0.9-0.8-1.8-1.6-2.9-2.4l1.7-2.5c1.2,0.8,2.3,1.7,3.3,2.7L259.7,198.6z M69.9,197.4c-0.1-1.1-0.1-2.2-0.1-3.3
				c0-0.3,0-0.5,0-0.8l3,0l0,0.8c0,1,0,2.1,0.1,3.2L69.9,197.4z M253.5,194.3c-1.1-0.6-2.2-1.1-3.5-1.6l1.1-2.8
				c1.4,0.5,2.6,1.1,3.8,1.7L253.5,194.3z M246.3,191.4c-1.1-0.4-2.4-0.7-3.8-1.1l0.8-2.9c1.4,0.4,2.7,0.8,3.9,1.2L246.3,191.4z
				 M73,189.4l-3-0.2c0.1-1.4,0.3-2.7,0.5-4.1l3,0.5C73.2,186.8,73.1,188.1,73,189.4z M238.7,189.3c-1.3-0.3-2.6-0.6-3.9-0.9
				l0.7-2.9c1.3,0.3,2.6,0.6,3.9,1L238.7,189.3z M230.9,187.4c-1.3-0.3-2.6-0.6-3.9-0.9l0.7-2.9c1.3,0.3,2.6,0.6,3.9,0.9
				L230.9,187.4z M223,185.5c-1.3-0.3-2.6-0.7-3.9-1l0.8-2.9c1.3,0.4,2.6,0.7,3.9,1L223,185.5z M215.2,183.4
				c-1.2-0.4-2.6-0.8-3.9-1.3l1.1-2.8c1.3,0.5,2.5,0.9,3.7,1.3L215.2,183.4z M74.2,181.7l-2.9-0.7c0.3-1.3,0.7-2.7,1.1-4l2.9,0.9
				C74.8,179.1,74.5,180.4,74.2,181.7z M207.5,180.5c-1.2-0.5-2.4-1.1-3.7-1.7l1.3-2.7c1.2,0.6,2.5,1.2,3.6,1.7L207.5,180.5z
				 M200.2,177c-1.2-0.6-2.4-1.3-3.6-1.9l1.5-2.6c1.2,0.7,2.3,1.3,3.5,1.9L200.2,177z M76.4,174.2l-2.8-1.1c0.5-1.3,1.1-2.6,1.7-3.8
				l2.7,1.3C77.4,171.8,76.9,173,76.4,174.2z M193.1,173c-1.2-0.7-2.3-1.4-3.5-2.1l1.6-2.6c1.1,0.7,2.3,1.4,3.4,2L193.1,173z
				 M186.1,168.8c-1.1-0.7-2.3-1.4-3.4-2.2l1.6-2.5c1.1,0.7,2.2,1.4,3.4,2.1L186.1,168.8z M93.5,166.5l0-3c1.3,0,2.6,0,4,0l0,3
				C96.1,166.5,94.7,166.5,93.5,166.5z M89.4,166.5c-1.5,0-2.8,0-4-0.1l0.1-3c1.2,0,2.5,0.1,4,0.1L89.4,166.5z M101.5,166.4l-0.1-3
				c1.3,0,2.6-0.1,4-0.1l0.1,3C104.2,166.3,102.9,166.4,101.5,166.4z M109.6,166l-0.2-3c1.3-0.1,2.7-0.2,4-0.3l0.3,3
				C112.3,165.8,111,165.9,109.6,166z M117.7,165.3l-0.3-3c1.4-0.2,2.7-0.3,3.9-0.5l0.5,3C120.5,165,119.1,165.1,117.7,165.3z
				 M179.3,164.4c-1.1-0.8-2.3-1.5-3.4-2.3l1.7-2.5c1.1,0.7,2.2,1.5,3.3,2.2L179.3,164.4z M125.8,164l-0.6-2.9
				c1.4-0.3,2.6-0.6,3.8-0.9l0.8,2.9C128.6,163.4,127.2,163.7,125.8,164z M133.8,161.6l-1.2-2.7c0.4-0.2,0.8-0.4,1.1-0.5
				c0.8-0.4,1.5-0.8,2.2-1.3l1.6,2.5c-0.8,0.5-1.6,0.9-2.4,1.4C134.7,161.2,134.2,161.4,133.8,161.6z M172.7,159.9
				c-1.1-0.8-2.2-1.6-3.3-2.3l1.7-2.4c1.1,0.8,2.2,1.5,3.3,2.3L172.7,159.9z M140.9,157.2l-1.9-2.4c1-0.8,1.9-1.6,2.8-2.6l2.1,2.1
				C143.1,155.4,142,156.3,140.9,157.2z M166.1,155.2c-1.1-0.8-2.2-1.6-3.3-2.4l1.8-2.4c1,0.8,2.1,1.6,3.2,2.4L166.1,155.2z
				 M146.8,151.2l-2.4-1.8c0.7-0.9,1.2-1.7,1.8-2.5l0.5-0.8l2.4,1.7l-0.5,0.7C148.1,149.4,147.5,150.3,146.8,151.2z M159.6,150.4
				c-1.2-0.9-2.3-1.7-3.2-2.4l1.8-2.4c0.9,0.7,2,1.5,3.2,2.4L159.6,150.4z M153.2,145.5c-0.3-0.2-0.6-0.4-0.8-0.6
				c-0.3,0.1-0.6,0.2-1,0.4l-1.7-2.5c0.9-0.6,1.9-1,3-1.1l0.7,0.7l0.3-0.4c0.1,0,0.5,0.4,1.2,1L153.2,145.5z"/>
		</g>
		<g>
			<path class="st2" d="M264.2,205.4l-1.8-2.4c0.9-0.7,1.3-1.1,1.3-1.1l2.2,2C265.9,203.9,265.3,204.5,264.2,205.4z"/>
			<path class="st2" d="M118.4,217.7c-1,0-2.1,0-3.1,0l0-3c1,0,2,0,3.1,0l0.9,0l0,3L118.4,217.7z M123.3,217.6l0-3
				c1.3,0,2.6,0,3.9-0.1l0.1,3C125.9,217.6,124.6,217.6,123.3,217.6z M111.4,217.6c-1.3,0-2.7-0.1-4-0.2l0.1-3
				c1.3,0.1,2.6,0.1,3.9,0.1L111.4,217.6z M131.2,217.4l-0.1-3c1.3,0,2.6-0.1,3.9-0.1l0.1,3C133.8,217.3,132.5,217.4,131.2,217.4z
				 M103.4,217.2c-1.4-0.1-2.7-0.2-4-0.3l0.3-3c1.3,0.1,2.6,0.2,3.9,0.3L103.4,217.2z M139.1,217.1l-0.1-3c1.3-0.1,2.6-0.1,3.9-0.2
				l0.1,3C141.7,217,140.4,217.1,139.1,217.1z M146.9,216.7l-0.2-3c1.3-0.1,2.6-0.1,3.9-0.2l0.2,3
				C149.6,216.6,148.3,216.7,146.9,216.7z M95.5,216.3c-1.4-0.2-2.7-0.4-4-0.6l0.6-2.9c1.2,0.2,2.5,0.4,3.8,0.6L95.5,216.3z
				 M154.8,216.3l-0.2-3l3.9-0.2l0.2,3L154.8,216.3z M162.7,215.9l-0.2-3c1.3-0.1,2.6-0.1,3.9-0.2l0.1,3
				C165.3,215.8,164,215.8,162.7,215.9z M218.4,215.7l-0.7,0l0-3l0.7,0c1.1,0,2.2,0,3.2,0l0.1,3
				C220.7,215.7,219.6,215.7,218.4,215.7z M213.8,215.6c-1.3,0-2.6-0.1-4-0.1l0.1-3c1.3,0.1,2.6,0.1,3.9,0.1L213.8,215.6z
				 M225.7,215.5l-0.1-3c1.3-0.1,2.6-0.1,3.9-0.2l0.2,3C228.4,215.4,227.1,215.5,225.7,215.5z M170.6,215.5l-0.1-3
				c1.3-0.1,2.6-0.1,3.9-0.2l0.1,3C173.2,215.4,171.9,215.5,170.6,215.5z M205.9,215.3c-1.3-0.1-2.6-0.1-3.9-0.2l0.1-3
				c1.3,0,2.7,0.1,4,0.2L205.9,215.3z M178.4,215.2l-0.1-3c1.3,0,2.6-0.1,4-0.1l0.1,3C181,215.1,179.7,215.1,178.4,215.2z
				 M186.3,215l-0.1-3c1.3,0,2.6,0,4-0.1l0,3C188.9,214.9,187.6,215,186.3,215z M198,215c-1.3,0-2.6,0-3.9,0l0-3c1.3,0,2.7,0,4,0
				L198,215z M233.7,214.9l-0.3-3c1.3-0.1,2.6-0.3,3.9-0.5l0.4,3C236.3,214.6,235,214.8,233.7,214.9z M87.6,214.8
				c-1.4-0.3-2.7-0.7-3.9-1.1l0.9-2.8c1.1,0.4,2.4,0.7,3.7,1.1L87.6,214.8z M241.6,213.8l-0.5-3c1.3-0.2,2.6-0.5,3.8-0.8l0.7,2.9
				C244.2,213.3,242.9,213.6,241.6,213.8z M79.9,212.3c-1.3-0.6-2.5-1.2-3.7-1.9l1.6-2.5c1,0.6,2.1,1.2,3.3,1.7L79.9,212.3z
				 M249.4,212.1l-0.8-2.9c1.3-0.4,2.5-0.7,3.7-1.1l1,2.8C252,211.3,250.7,211.7,249.4,212.1z M257,209.4l-1.2-2.8
				c1.2-0.5,2.4-1.1,3.4-1.7l1.5,2.6C259.6,208.2,258.3,208.8,257,209.4z"/>
			<path class="st2" d="M72.8,207.8c-0.5-0.5-1-1-1.5-1.5l2.3-2c0.4,0.5,0.8,0.9,1.3,1.3L72.8,207.8z"/>
		</g>
	</g>
	<path class="st2" d="M74.5,160.2l-1.6-1.1c0.1-0.2,13.7-19.5,39-22.3c9.2-1,21-7.5,21.1-7.6l1,1.7c-0.5,0.3-12.3,6.8-21.9,7.8
		C87.6,141.4,74.6,160,74.5,160.2z"/>
</g>
</svg>
