<?xml version="1.0" encoding="utf-8"?>
<!-- Generator: Adobe Illustrator 26.3.1, SVG Export Plug-In . SVG Version: 6.00 Build 0)  -->
<svg version="1.1" id="Laag_1" xmlns="http://www.w3.org/2000/svg" xmlns:xlink="http://www.w3.org/1999/xlink" x="0px" y="0px"
	 viewBox="0 0 1368.9 758.4" style="enable-background:new 0 0 1368.9 758.4;" xml:space="preserve">
<style type="text/css">
	.st0{opacity:0.94;fill:#EDEDED;}
	.st1{opacity:0.94;fill:#DC5F35;}
</style>
<path class="st0" d="M1201.1,758.4H68.9c-25.8,0-43.1-20.9-38.5-46.8l112-635.3c4.6-25.8,29.2-46.8,55-46.8h1132.2
	c25.8,0,43.1,20.9,38.5,46.8l-112,635.3C1251.6,737.5,1226.9,758.4,1201.1,758.4z"/>
<path class="st1" d="M1171.5,728.9H39.3c-25.8,0-43.1-20.9-38.5-46.8l112-635.3C117.3,20.9,142,0,167.8,0H1300
	c25.8,0,43.1,20.9,38.5,46.8l-112,635.3C1222,708,1197.3,728.9,1171.5,728.9z"/>
</svg>
