<?xml version="1.0" encoding="UTF-8"?><svg id="Layer_1" xmlns="http://www.w3.org/2000/svg" viewBox="0 0 512 512"><defs><style>.cls-1{fill:#d8b7a0;}.cls-1,.cls-2,.cls-3{stroke:#231f20;stroke-miterlimit:10;stroke-width:5px;}.cls-2{fill:#df1d46;}.cls-3{fill:#725d4e;}.cls-4{fill:#f6e7d0;}.cls-5{fill:#f1d5c1;}.cls-6{fill:#f3d5b2;}.cls-7{fill:#f05555;}.cls-8{fill:#f04946;}.cls-9{fill:#fff;}.cls-10{fill:#ffefda;}.cls-11{fill:#fffef0;}.cls-12{fill:#e83635;}.cls-13{fill:#99362e;}.cls-14{fill:#342723;}.cls-15{fill:#d82927;}.cls-16,.cls-17{fill:#231f20;}.cls-18{fill:#1a1716;}.cls-19{fill:#3b2e2a;}.cls-17{font-family:Gameplay, Gameplay;font-size:25.02px;letter-spacing:.2em;}.cls-20{fill:#726658;opacity:.36;}</style></defs><g><path class="cls-9" d="M42.77,14.1H196.21c16.95,0,30.69,13.74,30.69,30.69v33.25c0,16.95-13.74,30.69-30.69,30.69h-9.21c-2.17,8.07-2.61,18.85,5.27,28.34,0,0-31.79-7-38.95-28.34H42.77c-16.95,0-30.69-13.74-30.69-30.69V44.79c0-16.95,13.74-30.69,30.69-30.69Z"/><text class="cls-17" transform="translate(69.94 73.05) scale(1.1 1)"><tspan x="0" y="0">nope</tspan></text></g><g><g><path class="cls-3" d="M205.51,220.28s21.63,32.27,127.5,39.77c105.87,7.5,153.5-36.01,153.5-36.01l-281.01-3.76Z"/><path class="cls-1" d="M288.24,244.38c-4.39,25.89-40.51,54-7.08,65.03,1.55,.11,2.39,1.96,1.97,3.46-2.58,9.24-11.38,39.25-23.57,65.24-14.61,31.16,11.03,87.96,59.28,84.37,43.86-3.26,68.12-19.73,70.94-64.52,.51-8.11-.55-16.24-2.98-23.99-4.21-13.46-12.67-39.03-13.96-59.72-.06-1,.41-1.92,1.2-2.48,.49-.35,.98-.69,1.39-1.13,21.54-23.42-6.92-36.39-1.7-66.26,0,0-58.97,4.23-85.49,0Z"/><path class="cls-2" d="M402.75,116.37c6.07,8.19,13.32,15.42,21.55,21.44,12.06,8.82,31.44,21.79,54.42,32.79,39.07,18.71,18,62.75-13.26,62.75s-67.77,11.24-117.24,12.37c-49.47,1.13-74.03-.92-110.93-11.83-36.9-10.91-58.48-25.77-32.09-59.68,0,0,5.78-8.98,34.01-28.56,28.24-19.57,49.71-43.33,58.4-51.98,12.93-12.87,59.68-35.29,94.97,8.98l10.16,13.71Z"/><path class="cls-9" d="M319.69,82.81c-.86,.27-1.42,.74-1.2,1.62,1.4,5.53,7.76,23.85,30.6,23.85,26.9,0,33.4-14.37,26.5-19.12-26.02-17.91-49.9-8.24-55.9-6.34Z"/><path class="cls-9" d="M207.47,174.66s5.04,23.94,29.01,13.59c13.99-6.04,15.17-16.21,11.87-23.98-2.65-6.21-8.65-10.35-15.38-10.96h0c-.52-.05-1.04,.09-1.47,.39-3.09,2.2-16.25,11.79-24.04,20.95Z"/><path class="cls-9" d="M394.5,239.76s-23.13-22.64-1.7-43.69c20.79-20.43,51.82-.52,55.1,13.28,3.38,14.24-3.71,23.25-3.71,23.25,0,0-32.97,5.2-49.68,7.17Z"/><path class="cls-9" d="M258.25,191.67s-1.61-13.08,16.64-16.07c18.25-2.98,14.58,23.99,6.89,28.12-7.69,4.13-22.84,5.74-23.53-12.05Z"/><path class="cls-9" d="M368.66,160.63s-1.86-14.43,19.22-17.72c21.08-3.29,19.67,23.54,7.95,31.01-8.42,5.36-26.38,6.33-27.18-13.29Z"/><path class="cls-9" d="M339.81,143.72c-3.93-4.08-10.34-4.56-15.03-1.37-4.79,3.26-11.29,9.43-2.19,14.65,13.07,7.5,18.24-2.03,19.12-7.26,.31-1.81-.09-4.14-1.9-6.02Z"/><path class="cls-9" d="M253.62,236.16s9.93-17.63,38.61-10.37c28.68,7.26,22.16,17.91,22.16,17.91,0,0-17.19,0-36.85-2.85-11.44-1.65-23.92-4.7-23.92-4.7Z"/><g><path class="cls-15" d="M357.28,304.97c-10.28,5.32-49.35,1.1-62.81,.21-2.22,.37-4.36,.99-6.4,1.92,17.11-.7,13.66,25.76,40.53,24.67,25.97-1.06,21.19-23.66,37.74-26.48,0,0-3.54-.4-9.06-.31Z"/><path class="cls-19" d="M348.52,303.8c-.19-4.57-9.56-7.89-20.93-7.43-11.37,.46-20.44,4.54-20.26,9.11,.19,4.57,9.56,7.89,20.93,7.43,11.37-.46,20.44-4.54,20.26-9.11Z"/><path class="cls-14" d="M336.74,308.23c-.14-3.43-4.47-6.05-9.67-5.83-5.2,.21-9.3,3.17-9.16,6.6,.14,3.43,4.47,6.04,9.67,5.83,5.2-.21,9.3-3.17,9.16-6.6Z"/><path class="cls-6" d="M309.82,305.23c13.44-1.08,21.49-1.59,34.47-1.41l-10.3-12.06-16.09,1.63-8.08,11.84Z"/><path class="cls-10" d="M334.27,303.03c-.05-1.26-3.2-2.16-7.03-2-3.83,.16-6.89,1.31-6.84,2.57,0,.07,.02,.14,.04,.2,5.2-.64,8.41-.65,13.81-.56,.02-.07,.02-.14,.02-.21Z"/><path class="cls-8" d="M288.06,306.99c17.11-.7,15.5,22.66,40.41,21.64,23.77-.97,21.3-20.87,37.86-23.55,0,0-19.85-1.34-39.06,5.61-14.02-4.16-28.18-8.41-39.21-3.7Z"/><path class="cls-7" d="M342.73,311.4c-3.81,.05-12.08,1.26-15.18,3.22-4.51-2-11.74-2.31-16.23-1.69,.11,4.01,7.32,9.19,16.63,8.81,8.2-.34,13.94-6.07,14.78-10.34Z"/><path class="cls-12" d="M357.27,304.81c-10.29,4.99-10.18,22.37-28.76,23.13-20.97,.86-20.59-21.97-34.05-22.76-2.22,.35-4.37,.94-6.4,1.81,17.11-.7,15.55,23.95,40.46,22.93,23.77-.97,21.25-22.16,37.81-24.84,0,0-3.53-.36-9.06-.27Z"/><path class="cls-15" d="M327.36,312.04c12.59-7.53,23-2.79,30.84-3.34,1.55-1.38,6.02-3.27,8.13-3.62,0,0-19.96-2.05-39.17,4.9-14.02-4.16-28.08-7.7-39.1-2.99,1.85-.08,8.97,2.32,10.71,4.02,8.49,0,19.34-4.23,28.59,1.03Z"/><path class="cls-8" d="M366,303.37c-15.71,.79-13.58-25.22-29.61-25.61-2.97-.07-5.84,3.3-8.86,3.96-3.02,.65-3.85-3.58-8.85-3.26-15.36,.99-18.52,28.85-30,27.17l-.62,1.36c5.49,2.5,21.88,8.14,31.15-9.59,0,0,9,3.72,15.28-.34,0,0,4.36,14.31,31.84,8.02l-.33-1.71Z"/><path class="cls-12" d="M366,303.37c-3.37,.17-5.92-.89-8-2.67-11.92,4.17-29.07-7.38-26.22-21.11-1.4,.88-2.81,1.82-4.26,2.13-2.19,.47-3.22-1.61-5.52-2.68,8.2,11.86-17.12,25.37-27.91,25.02-1.62,1.24-3.39,1.87-5.43,1.57l-.62,1.36c5.49,2.5,19.55,8.24,33.13-8.43,0,0,5.59,2.76,12.06-.16,0,0,9.1,14.36,33.08,6.69l-.33-1.71Z"/><path class="cls-15" d="M326.12,310.72s1.45,2.92,1.5,5.7c0,0-.2-4.87,1.32-5.95l-2.82,.25Z"/><path class="cls-12" d="M328.78,328.23s-1.25-2.37-1.11-4.57c0,0-.13,3.86-1.72,4.66l2.83-.09Z"/><path class="cls-12" d="M343.9,314.98s2.05,.8,2.74,4.23l1.03-.93s-1.7-2.89-3.77-3.3Z"/><path class="cls-12" d="M335.82,321.29s1.89,1.97,1.48,5.71l1.14-.59s-.58-3.59-2.62-5.12Z"/><path class="cls-12" d="M316.53,321.68s-1.48,1.49-1.18,4.73l-.88-.63s.47-3.01,2.06-4.1Z"/><path class="cls-12" d="M310.58,314.55s-1.9,.44-3.16,2.92l-.75-1.26s2.09-1.55,3.91-1.65Z"/><path class="cls-7" d="M341.06,279.68c-2.48-1.61-5.7-1.68-7.38,.23-1.32,1.5-.64,5.39,1.8,7.08,2.43,1.68,9.29,2.82,10.67,1.39,1.38-1.44-2.05-6.71-5.09-8.69Z"/><path class="cls-7" d="M312.2,281.34c2.47-1.87,6.08-2.37,7.98-.5,1.49,1.46,.81,5.76-1.6,7.7-2.41,1.94-9.49,3.64-11.04,2.25-1.55-1.4,1.64-7.16,4.66-9.44Z"/><path class="cls-15" d="M320.64,295.48c.12,2.87-.95,4.86-3.53,7.43,1.36-1.25,2.94-2.35,4.3-4.02,0,0,5.36,2.84,11.82-.08,0,0,.87,.91,2.71,2.54-2.55-2.67-2.39-5.89-2.39-5.89-.65,4.68-10.39,5.99-12.92,.01Z"/><path class="cls-15" d="M336.97,307.99l-.79,.13s.6,1.37,.56,2.67c0,0,.55-1.27,.23-2.8Z"/><path class="cls-7" d="M349.53,290.28c-.24-.85-1.02-1.94-1.58-2.06-.55-.12-1.01,1.24-.78,2.1,.24,.85,1.23,1.17,1.78,1.29,.55,.12,.81-.48,.57-1.33Z"/><path class="cls-7" d="M305.29,293.32c.42-.62,.73-1.7,.53-2.11-.2-.4-1.28,.07-1.7,.69-.42,.62-.14,1.4,.05,1.8,.2,.4,.7,.23,1.12-.39Z"/><path class="cls-15" d="M311.65,303.06c.16,2.06-.75,4.24-1.32,5.26l1.64-1.06c.52-2.24-.32-4.2-.32-4.2Z"/><polygon class="cls-19" points="317.84 304.99 318.18 303.92 318.56 305.11 317.84 304.99"/><polygon class="cls-19" points="335.25 303.99 335.6 302.92 335.97 304.11 335.25 303.99"/></g><g><path d="M263.21,265.62c-.46,2.45-1.33,9.08-4.36,10.82l9.91-.98c.17-7.65-5.09-12.29-5.55-9.84Z"/><g><path d="M268.82,270.28c-1.98-.58-4.95-2.82-5.04-3.55-.09-.73,6.52-6.68,6.52-6.68l-1.47,10.23Z"/><path class="cls-13" d="M305.18,274.15c2.11-.42,5.4-2.43,5.55-3.15,.15-.72-4.63-5-4.63-5l-.92,8.15Z"/><path d="M306.98,270.85c0-5.69-10.23-12.71-20.95-13.12-10.72-.41-18.24-.91-18.69,10.9-.45,11.81,7.96,12.95,18.69,13.35,10.72,.41,20.95-5.99,20.95-11.13Z"/><path class="cls-11" d="M304.6,267.8c-.36-3.41-10.21-10.72-20.14-10.52-9.93,.2-15.42,1.09-15.81,11.26-.39,10.16,7.42,13.66,17.34,13.45,9.93-.2,19.66-4.07,18.61-14.19Z"/><path class="cls-4" d="M287.08,282.43c-9.93,.2-17.71-6.61-17.32-16.77,.06-1.64,.33-3.23,.78-4.75-1.11,2.34-1.79,4.92-1.89,7.62-.39,10.16,7.45,13.66,17.37,13.45,8.43-.17,15.65-2.04,17.88-9.83-3.02,6.17-9.48,10.12-16.83,10.27Z"/><path class="cls-18" d="M295.88,269.79c.19-5.03-3.92-9.27-9.18-9.47-5.26-.2-9.68,3.71-9.87,8.74-.19,5.03,3.92,9.27,9.18,9.47,5.26,.2,9.68-3.71,9.87-8.74Z"/><path class="cls-9" d="M297.42,270.73c.07-1.84-1.16-3.38-2.74-3.44-1.58-.06-2.92,1.38-2.99,3.22-.07,1.84,1.16,3.38,2.74,3.44,1.58,.06,2.93-1.38,3-3.22Z"/><path class="cls-11" d="M292.11,264.49c-.4-1-1.24-1.65-1.88-1.45-.64,.2-.83,1.18-.42,2.18,.4,1,1.24,1.65,1.88,1.45,.64-.2,.83-1.18,.42-2.18Z"/></g><path d="M311.19,271.63c-2.6,.15-9.52-11.22-24.06-11.9-14.54-.68-21.42,5.11-23.12,7.64,0,0-2.03-1.81,.58-5.41,2.61-3.6,12.8-8.23,23.54-5.53,12.72,3.2,21.44,14.02,26.64,13.48l-3.57,1.71Z"/><path d="M312.63,270.95c-7.6,3.06-13.08,14.56-30.95,12.22-17.87-2.34-13.84-6.08-27.79-4.39,0,0,8.53-5.23,14.58-3.52,6.04,1.71,15.65,5.86,24.67,3.71,7.16-1.7,14.07-7.98,19.5-8.02Z"/><path d="M255.77,257.74s5.51,5.38,9.99,5.14l-1.89,1.52s-5.97-1.26-8.1-6.65Z"/><path d="M259.73,254.48s3.99,6.58,8.39,7.46l-2.21,1s-5.46-2.7-6.18-8.46Z"/><path d="M263.33,252.42s3.45,6.88,7.77,8.11l-2.28,.82s-5.23-3.13-5.49-8.93Z"/><path d="M268.09,250.62s2.87,7.14,7.07,8.73l-2.34,.63s-4.95-3.55-4.73-9.35Z"/><path d="M273.59,249.15s.37,6.24,3.7,7.48l-2.32,.65s-3.39-2.97-1.37-8.13Z"/></g><g><path d="M393.53,266.77c.46,2.45,1.33,9.08,4.36,10.82l-9.91-.98c-.17-7.65,5.09-12.29,5.55-9.84Z"/><g><path d="M387.92,271.43c1.98-.58,4.95-2.82,5.04-3.55,.09-.73-6.52-6.68-6.52-6.68l1.47,10.23Z"/><path class="cls-13" d="M351.56,275.3c-2.11-.42-5.4-2.43-5.55-3.15-.15-.72,4.63-5,4.63-5l.92,8.15Z"/><path d="M349.76,272.01c0-5.69,10.23-12.71,20.95-13.12,10.72-.41,18.24-.91,18.69,10.9,.45,11.81-7.96,12.95-18.69,13.35-10.72,.41-20.95-5.99-20.95-11.13Z"/><path class="cls-11" d="M352.14,268.95c.36-3.41,10.21-10.72,20.14-10.52,9.93,.2,15.42,1.09,15.81,11.26,.39,10.16-7.42,13.66-17.34,13.45-9.93-.2-19.66-4.07-18.61-14.19Z"/><path class="cls-4" d="M369.66,283.58c9.93,.2,17.71-6.61,17.32-16.77-.06-1.64-.33-3.23-.78-4.75,1.11,2.34,1.79,4.92,1.89,7.62,.39,10.16-7.45,13.66-17.37,13.45-8.43-.17-15.65-2.04-17.88-9.83,3.02,6.17,9.48,10.12,16.83,10.27Z"/><path class="cls-18" d="M360.85,270.94c-.19-5.03,3.92-9.27,9.18-9.47,5.26-.2,9.68,3.71,9.87,8.74,.19,5.03-3.92,9.27-9.18,9.47-5.26,.2-9.68-3.71-9.87-8.74Z"/><path class="cls-9" d="M359.31,271.88c-.07-1.84,1.16-3.38,2.74-3.44,1.58-.06,2.92,1.38,2.99,3.22,.07,1.84-1.16,3.38-2.74,3.44-1.58,.06-2.93-1.38-3-3.22Z"/><path class="cls-11" d="M364.63,265.64c.4-1,1.24-1.65,1.88-1.45,.64,.2,.83,1.18,.42,2.18-.4,1-1.24,1.65-1.88,1.45-.64-.2-.83-1.18-.42-2.18Z"/></g><path d="M345.54,272.78c2.6,.15,9.52-11.22,24.06-11.9,14.54-.68,21.42,5.11,23.12,7.64,0,0,2.03-1.81-.58-5.41-2.61-3.6-12.8-8.23-23.54-5.53-12.72,3.2-21.44,14.02-26.64,13.48l3.57,1.71Z"/><path d="M344.11,272.1c7.6,3.06,13.08,14.56,30.95,12.22,17.87-2.34,13.84-6.08,27.79-4.39,0,0-8.53-5.23-14.58-3.52-6.04,1.71-15.65,5.86-24.67,3.71-7.16-1.7-14.07-7.98-19.5-8.02Z"/><path d="M400.97,258.89s-5.51,5.38-9.99,5.14l1.89,1.52s5.97-1.26,8.1-6.65Z"/><path d="M397.01,255.63s-3.99,6.58-8.39,7.46l2.21,1s5.46-2.7,6.18-8.46Z"/><path d="M393.41,253.57s-3.45,6.88-7.77,8.11l2.28,.82s5.23-3.13,5.49-8.93Z"/><path d="M388.65,251.77s-2.87,7.14-7.07,8.73l2.34,.63s4.95-3.55,4.73-9.35Z"/><path d="M383.15,250.3s-.37,6.24-3.7,7.48l2.32,.65s3.39-2.97,1.37-8.13Z"/></g><path class="cls-5" d="M358.97,428.04c-3.24,8.19-11.82,13.17-20.49,11.54-6.36-1.19-11.4-5.77-8.88-18.39,5.66-28.28,18.99-15.35,24.64-33.13,5.66-17.77,28.68-.4,15.76,19.39-5.73,8.78-9.08,15.65-11.04,20.58Z"/><path class="cls-16" d="M219.3,229.76c12.41,5.23,25.33,8.93,38.03,13.36l-.02,.2c-1.71,.04-3.44-.12-5.11-.43-5.05-.81-9.83-2.66-14.52-4.6-6.27-2.52-12.47-5.23-18.46-8.35l.09-.18h0Z"/><path class="cls-16" d="M287.32,248.62c-4.46,.54-8.93,.28-13.36-.3-4.4-.68-8.89-1.63-12.81-3.86,8.49,1.39,17.79,2.24,26.16,4.16h0Z"/><path class="cls-16" d="M373.48,248.25c16.42-.79,32.59-3.42,48.42-7.84-14.86,7.05-32.1,9.82-48.42,7.84h0Z"/><path class="cls-16" d="M386.45,252.43c8.86-1,17.64-1.26,26.41-3.02-7.79,4.4-17.79,4.79-26.41,3.02h0Z"/><path class="cls-16" d="M416.79,248.36c16.12-4.17,32.41-8.38,46.89-16.87-12.29,10.56-30.96,15.65-46.89,16.87h0Z"/></g><path class="cls-20" d="M293.7,474.6s-56.89-.93,1.17,14.8c58.05,15.73,100.4-14.82,73.45-14.81-26.96,.01-74.61,.01-74.61,.01Z"/></g></svg>