<?xml version="1.0" encoding="UTF-8"?><svg id="Layer_1" xmlns="http://www.w3.org/2000/svg" viewBox="0 0 512 512"><defs><style>.cls-1{fill:#fff;}.cls-2{fill:#281d21;stroke:#231f20;stroke-miterlimit:10;stroke-width:4px;}.cls-3{fill:#231f20;font-family:Gameplay, Gameplay;font-size:18.14px;letter-spacing:.2em;}</style></defs><path class="cls-2" d="M116.15,462.31c1.71,1.66,1.29,4.48-.88,5.48-6.98,3.22-16.77,9.57-8.27,17.26,8.24,7.45,16.74,2.64,21.51-1.42,5.62-4.78,14.26-3.13,17.49,3.5,.28,.56,.54,1.17,.8,1.81,5.31,13.2,25.06,11.43,29.19,5.24,1.29-1.94,3.8-4.2,6.82-6.19,7.17-4.72,17.24-2.25,20.82,5.55,1.52,3.32,4.84,6.16,11.86,5.35,15.33-1.76,11.5-6.19,18.28-10.31,6.78-4.13,14.19-2.94,18.45,.52s11.18,12.24,23.56,6.12c12.38-6.12,12.91-15.7,26.49-10.65,13.58,5.06,14.37,8.92,24.09,7.72,9.72-1.2,8.92-9.72,2-13.44-6.92-3.73-7.99-7.32-4.66-10.91,3.33-3.59,8.52-18.1,.93-28.75-7.59-10.65-23.42-12.91-33.94-9.32-10.51,3.59-19.43,12.78-37.4,.27-17.97-12.51-21.03-18.5-37-16.37s-16.24,28.22-31.14,26.35c-14.91-1.86-18.1-12.51-36.33-12.91s-27.42,4.39-34.34,18.9c-3.9,8.16-1.32,13.28,1.67,16.19Z"/><g><path class="cls-1" d="M386.03,311.56h-111.23c-12.29,0-22.25,9.96-22.25,22.25v24.1c0,12.29,9.96,22.25,22.25,22.25h6.68c1.57,5.85,1.89,13.67-3.82,20.55,0,0,23.04-5.08,28.24-20.55h80.14c12.29,0,22.25-9.96,22.25-22.25v-24.1c0-12.29-9.96-22.25-22.25-22.25Z"/><text class="cls-3" transform="translate(290 354.29) scale(1.1 1)"><tspan x="0" y="0">Snhip</tspan></text></g></svg>