<?xml version="1.0" encoding="UTF-8"?><svg xmlns="http://www.w3.org/2000/svg" viewBox="0 0 512 512"><defs><style>.cls-1{font-family:Gameplay, Gameplay;font-size:26.7px;letter-spacing:.2em;}.cls-1,.cls-2{fill:#231f20;}.cls-3{fill:#ead4c5;}.cls-3,.cls-4,.cls-5{stroke-width:5px;}.cls-3,.cls-4,.cls-5,.cls-6,.cls-7,.cls-8,.cls-9{stroke:#231f20;stroke-miterlimit:10;}.cls-4{fill:#473d37;}.cls-5{fill:#a97c50;}.cls-10{fill:#f6e7d0;}.cls-11{fill:#f15743;}.cls-12{fill:#f7966b;}.cls-13{fill:#f3d5b2;}.cls-14{fill:#fff;}.cls-15{fill:#fffef0;}.cls-16{fill:#ffe9cf;}.cls-17{fill:#bb9d88;}.cls-18{fill:#cc822e;}.cls-19{fill:#1e1e1e;}.cls-20{fill:#40332e;}.cls-21,.cls-22{fill:#726658;}.cls-6{fill:#876f62;}.cls-6,.cls-7,.cls-8{stroke-width:2px;}.cls-7{fill:#ba9b85;}.cls-8{fill:#aa6762;}.cls-23{fill:#df5656;mix-blend-mode:multiply;opacity:.5;}.cls-24{fill:#d1d3d4;opacity:.32;}.cls-9{fill:#9f4c46;stroke-width:3px;}.cls-25{isolation:isolate;}.cls-22{opacity:.36;}</style></defs><g class="cls-25"><g id="Layer_1"><g><g><path class="cls-14" d="M473.18,39.04h-163.75c-18.09,0-32.75,14.66-32.75,32.75v35.48c0,18.09,14.66,32.75,32.75,32.75h9.83c2.32,8.61,2.79,20.12-5.63,30.24,0,0,33.92-7.47,41.57-30.24h117.98c18.09,0,32.75-14.66,32.75-32.75v-35.48c0-18.09-14.66-32.75-32.75-32.75Z"/><text class="cls-1" transform="translate(338.43 101.95) scale(1.1 1)"><tspan x="0" y="0">URLF</tspan></text></g><g><g><path class="cls-5" d="M39.68,274.96s-68.63-9.48-9.86-78.73c58.78-69.25,82.53-86.56,95.41-103.87,12.88-17.31,81.32-16.91,102.26,21.74,20.93,38.65,50.32,78.51,62.8,88.17,12.48,9.66,45.29,40.99-43.98,59.95,0,0-182.09,20.21-206.64,12.74Z"/><path class="cls-4" d="M32.47,262.79c.57-2.06,1.79-3.86,3.35-5.31,9.38-8.68,57.81-49.65,133.58-46.78,84.7,3.21,115.86-5.39,129.72,19.73,13.86,25.12-94.43,39.42-94.43,39.42,0,0-83.17,2.6-116.95,8.23-31.15,5.19-59.13-1.31-55.27-15.29Z"/><path class="cls-3" d="M111.69,289.25s13.11,73.14-6.76,100.2c-19.87,27.06-3.8,72.72,44.39,69.33,48.2-3.38,47.35-27.06,48.2-40.59,.85-13.53-.85-38.05,13.11-84.13,11.51-38.01,6.33-88.1,4.17-104.48-.48-3.61-2.67-6.76-5.88-8.49-13.94-7.55-54.29-23.99-93,11.93-4.61,4.28-7.42,10.18-7.86,16.46-.54,7.77-.15,20.42,3.64,39.76Z"/><path class="cls-2" d="M105.92,256.43c-.71,1.21-1.99,1.99-3.08,2.84-3.45,2.43-7.26,4.32-11.2,5.83-15.7,6.05-34.39,5.54-49.01-3.12,15.63,5.28,32.5,5.67,48.27,.91,3.92-1.17,7.82-2.56,11.52-4.33,1.19-.64,2.57-1.14,3.5-2.13h0Z"/><path class="cls-2" d="M102.6,247.59c-10.55,4.03-33.96,6.54-42.35-2.42,9,6.34,31.41,3.79,42.35,2.42h0Z"/><path class="cls-2" d="M97.12,256.89c-8.75,6.59-32.54,4.86-41.6-.98-1.74-1.11-3.39-2.51-4.37-4.31,1.34,1.54,3.04,2.62,4.84,3.45,8.78,4.18,32.38,6.08,41.13,1.85h0Z"/><path class="cls-2" d="M214.41,235.32c16.47,11.48,37.61,13.84,57.08,10.75,6.56-1.01,13.06-2.57,19.56-4.39-6.79,3.38-14.14,5.73-21.62,7.23-18.94,3.54-40.87,.41-55.02-13.59h0Z"/><g><path class="cls-8" d="M92.71,259.58c-2.76-1.76-6.37-6.55-6.22-7.74,.16-1.19,12.55-7.68,12.55-7.68l-6.33,15.42Z"/><path class="cls-9" d="M150.34,264.53c-8.42-9.31-19.03-17.09-40.5-19.11-16.01-1.5-20.51,3.52-18.98,21.75,1.53,18.24,15.78,32.19,31.84,31.18,16.05-1.01,39.91-20.25,27.63-33.83Z"/><path class="cls-15" d="M146.52,263.66c-2.29-7.88-20.33-19.11-35.02-18.18-14.68,.93-19.64,3.94-18.16,21.54,1.48,17.6,14.33,28.08,29.01,27.15,14.68-.93,29.09-13.55,24.17-30.51Z"/><path class="cls-10" d="M123.48,289.99c-14.68,.93-27.6-10.4-29.08-28.01-.24-2.84-.16-5.6,.2-8.26-1.18,4.11-1.66,8.61-1.26,13.3,1.48,17.6,14.4,28.93,29.08,28.01,12.48-.79,22.21-10.18,23.95-23.78-3.23,10.84-12.02,18.06-22.89,18.74Z"/><path class="cls-19" d="M137,263.67c-.61-10.42-8.8-18.56-18.28-18.18-9.49,.38-16.69,9.13-16.08,19.55,.61,10.42,8.8,18.56,18.28,18.18,9.49-.38,16.69-9.13,16.08-19.55Z"/><path class="cls-23" d="M155.93,278.57c-2.16-18.26-14.71-22.57-31.05-27.9-14.7-4.79-30.68-12.91-37.67,1.18,16.41-.59,43.97,18.69,60.21,29.34,3.63-.1,7.25-.88,8.51-2.62Z"/><path class="cls-15" d="M129.19,277.09c2.56-2.57,3.11-6.24,1.21-8.19-1.89-1.95-5.51-1.45-8.07,1.13-2.56,2.57-3.11,6.24-1.21,8.19,1.89,1.95,5.51,1.45,8.07-1.13Z"/><path class="cls-15" d="M115.94,279.65c1.36-.61,2.25-2.38,1.98-3.95-.27-1.57-1.59-2.36-2.95-1.75-1.36,.61-2.25,2.38-1.98,3.95,.27,1.57,1.59,2.36,2.95,1.75Z"/><path class="cls-7" d="M89.5,245.57c-1.95,3.61-2.07,4.61-2.07,4.61,5.55-7.13,41.39,12.4,68.5,28.39,0,0,.37-2.18,.67-5.68-19.49-34.17-55.13-33.03-67.11-27.32Z"/><path class="cls-6" d="M155.79,278.02l-66.26,8.31s21.11,20.3,42.51,12.27c21.4-8.03,23.75-20.58,23.75-20.58Z"/></g><g><path class="cls-8" d="M231.56,259.89c2.76-1.76,6.37-6.55,6.22-7.74-.16-1.19-12.55-7.68-12.55-7.68l6.33,15.42Z"/><path class="cls-9" d="M173.94,264.83c8.42-9.31,19.03-17.09,40.5-19.11,16.01-1.5,20.51,3.52,18.98,21.75-1.53,18.24-15.78,32.19-31.84,31.18-16.05-1.01-39.91-20.25-27.63-33.83Z"/><path class="cls-15" d="M177.76,263.96c2.29-7.88,20.33-19.11,35.02-18.18,14.68,.93,19.64,3.94,18.16,21.54-1.48,17.6-14.33,28.08-29.01,27.15-14.68-.93-29.09-13.55-24.17-30.51Z"/><path class="cls-10" d="M200.8,290.29c14.68,.93,27.6-10.4,29.08-28.01,.24-2.84,.16-5.6-.2-8.26,1.18,4.11,1.66,8.61,1.26,13.3-1.48,17.6-14.4,28.93-29.08,28.01-12.48-.79-22.21-10.18-23.95-23.78,3.23,10.84,12.02,18.06,22.89,18.74Z"/><path class="cls-19" d="M187.28,263.97c.61-10.42,8.8-18.56,18.28-18.18,9.49,.38,16.69,9.13,16.08,19.55-.61,10.42-8.8,18.56-18.28,18.18-9.49-.38-16.69-9.13-16.08-19.55Z"/><path class="cls-23" d="M168.35,278.87c2.16-18.26,14.71-22.57,31.05-27.9,14.7-4.79,30.68-12.91,37.67,1.18-16.41-.59-43.97,18.69-60.21,29.34-3.63-.1-7.25-.88-8.51-2.62Z"/><path class="cls-15" d="M195.09,277.4c-2.56-2.57-3.11-6.24-1.21-8.19,1.89-1.95,5.51-1.45,8.07,1.13,2.56,2.57,3.11,6.24,1.21,8.19-1.89,1.95-5.51,1.45-8.07-1.13Z"/><path class="cls-15" d="M208.34,279.95c-1.36-.61-2.25-2.38-1.98-3.95,.27-1.57,1.59-2.36,2.95-1.75,1.36,.61,2.25,2.38,1.98,3.95-.27,1.57-1.59,2.36-2.95,1.75Z"/><path class="cls-7" d="M234.78,245.87c1.95,3.61,2.07,4.61,2.07,4.61-5.55-7.13-41.39,12.4-68.5,28.39,0,0-.37-2.18-.67-5.68,19.49-34.17,55.13-33.03,67.11-27.32Z"/><path class="cls-6" d="M168.49,278.33l66.26,8.31s-21.11,20.3-42.51,12.27c-21.4-8.03-23.75-20.58-23.75-20.58Z"/></g><g><path class="cls-11" d="M112.51,358.65c4.98-.08,28.87-18.82,36.42-18.93,11.1-.15,32.53,13.18,40.34,17.89,0,0-26.82-24.78-40.64-22.94-13.83,1.83-36.12,23.98-36.12,23.98Z"/><path class="cls-12" d="M111.72,358.84c-2.12-.04-14.24-4.75-17.44-7.57,0,0,4.1-13.7,13.24-14.28,13.1-.82,27.91-2.92,38.31-6.07,10.39-3.14,62.5-17.05,74.15-17.3,0,0,18.49,19.1,14.57,33.39-1.31,4.77-5.16,17.52-6.28,21.06-1.62,5.13-19.45,1.98-27.32-2.5-7.87-4.48-40.54-29.66-51.56-28.39-11.51,1.33-32.42,21.76-37.66,21.66Z"/><path class="cls-11" d="M110.12,356.81c-2.03-.05-10.65-3.97-13.73-6.46,0,0,2.85-11.04,11.6-11.5,16.64-.88,32.7-4.2,38.64-5.82,9.94-2.71,61.75-17.54,72.91-17.71,0,0,17.29,19.34,13.59,31.86-1.23,4.18-6.99,15.22-8.05,18.32-1.53,4.49-18.09,.19-25.65-3.77-7.56-3.96-32.96-29.69-51.47-25.88-16.15,3.33-32.83,21.08-37.85,20.97Z"/><path class="cls-20" d="M110.53,355.98c-2.07-.06-9.06-3.92-12.17-6.66,0,0,2.06-8.46,10.95-9.02,12.75-.8,27.77-2.63,37.89-5.69,10.12-3.06,60.41-16.15,71.75-16.4,0,0,16.14,15.58,12.32,29.49-1.27,4.64-6.63,11.66-7.72,15.1-1.57,4.99-14.5,2.26-22.16-2.1-7.66-4.36-37.98-26.19-48.75-25.28-18.62,1.58-40.16,20.62-42.12,20.57Z"/><path class="cls-13" d="M110,353.03c-1.03,.65-7.13-1.54-7.65-4.61-.21-1.26,1.81-2.88,3.49-4.19,0,0,10.91-2.05,23.88-3.7,0,0-13.15,8.39-19.72,12.5Z"/><path class="cls-15" d="M157.19,333.86c14.17,1.45,50.42,26.91,55.72,28.35,2.37,.64,6.43,.69,7-.31,.57-1,9.29-14.29,9.23-19.12-.08-6.44-8.12-19.97-11.57-21.04-7.01-2.18-60.37,12.12-60.37,12.12Z"/><path class="cls-13" d="M225.88,350.66c-.77-.64-8.68-9.82-38.79-13.34,0,0,34.45,4.01,39.37-2.48,0,0,4.36,9.56-.58,15.81Z"/><path class="cls-13" d="M229.13,342.78c-.05-3.86-2.96-10.27-6.02-15.01,2.51,4.37,4.61,9.49,4.66,12.77,.06,4.82-7.86,18.63-8.43,19.63-.57,1-5.22,1.26-7.58,.62-4.74-1.29-34.38-22.43-50.73-27.93-2.4,.63-3.83,1.01-3.83,1.01,14.17,1.45,50.62,27.73,55.92,29.17,2.37,.64,7.02,.38,7.58-.62,.57-1,8.49-14.8,8.43-19.63Z"/><path class="cls-13" d="M168.71,335.24s50.17-11.72,56.33-4.23c-2.54-4.65-5.35-9.27-7.18-9.84-7.01-2.18-60.66,12.68-60.66,12.68,14.17,1.45,50.62,27.73,55.92,29.17,.05,.01,.1,.03,.16,.04-12.52-9.64-40.26-24.85-44.56-27.83Z"/><path class="cls-20" d="M227.86,350.43c.25-4.62-12.05-9.23-28.14-11.64,0,0,22.43,2.93,28.42-3.1,0,0,4.78,6.95-.28,14.74Z"/><path class="cls-12" d="M145.96,335.31c-4.82,1.06-13.27,6.57-16,8.27-.12,.07-.23,.14-.33,.2,0,0,10.78-5.7,16.77-7,5.99-1.3,16.33,1.14,16.33,1.14-4.75-2.57-11.73-3.72-16.76-2.62Z"/><path class="cls-20" d="M209.79,347.69c2.2-5.4,2.88-5.58,4.01-7.45l-2.34,.58s-2.01,7.73-1.66,6.87Z"/><path class="cls-20" d="M215.31,340.2c.48-.37,1.87-2.87,1.68-5.74,0,0,1.22,3.55,1.88,5.48l-3.56,.27Z"/><path class="cls-20" d="M159.14,332.32s15.82,3.59,26.39,4.96c0,0-22.51-2.69-26.52-2.45l-2.82-.84,2.95-1.67Z"/><path class="cls-20" d="M112.16,351.68c-3.53,.24-7.06-2.17-3.6-4.13,0,0-5.25-.28-2.31-3.81,0,0-5.69,1.9-4.8,5.32,1.22,4.68,10.14,6.12,10.72,2.63Z"/><path class="cls-20" d="M130.52,339.63c-.26,.07-8.53,3.83-14.01,5.34,0,0,12.28-3.37,13.03-2.99l.98-2.35Z"/><path class="cls-20" d="M180.41,336.53c4.66,.56,6.49,2.89,6.75,4.39,0,0,.5-2.83,2.35-3.31l-9.1-1.09Z"/><path class="cls-13" d="M197.67,327.25s2.41,3.46,1.89,8.62c0,0,.93-7.57,3.03-8.84l-4.92,.22Z"/><path class="cls-16" d="M116,345.67c-1.16,1.72-2.66,3.34-3.52,3.47-.86,.13-3-1.15-2.45-1.73,.55-.58,5.97-1.74,5.97-1.74Z"/><path class="cls-20" d="M107.98,347.65c1.35-.67,1.78-1.28,4.49-1.65,2.71-.37,4.41-1.19,4.41-1.19,0,0-1.94,.98-3.8,1.57-1.86,.59-5.1,1.27-5.1,1.27Z"/><g><path class="cls-13" d="M211.68,361.28c.18,.13,.37,.24,.54,.31l-.54-.31Z"/><path class="cls-13" d="M208.16,354.09l-2.85,3.54,6.37,3.66c-1.81-1.32-3.77-5.34-3.52-7.2Z"/></g><polygon class="cls-13" points="185.53 345.75 186.61 343.23 188.02 347.26 185.53 345.75"/><path class="cls-20" d="M181.72,335.82c-.89,.64-1.59,.8-1.59,.8l3.87,.52c-.87-.79-2.27-1.32-2.27-1.32Z"/><path class="cls-20" d="M118.51,344.3l-3.13,1.07s2.18,.77,2.14,2.99,.25,.1,.25,.1l.8-.47s-1.2-3.15-.06-3.69Z"/><path class="cls-20" d="M111,346.71l2.01-.56s-1.37-1.23-1.22-3.47c.15-2.24-.13-.12-.13-.12l-.47,.42s.49,3.25-.18,3.72Z"/></g><path class="cls-14" d="M98.73,124s10.24,32.61,31.77,6.49c21.53-26.12-3.14-37.06-3.14-37.06,0,0-21.43,23.22-28.63,30.57Z"/><path class="cls-14" d="M246.38,149.91c-2.5-3.66-7.08-5.29-11.33-4.02-6.09,1.83-13.6,5.88-13.34,14.78,.35,11.81,18.35,17.68,32.01,16.4,4.72-.44,7.25-5.76,4.58-9.68l-11.93-17.48Z"/><path class="cls-14" d="M48.63,244.25s-16.94-6.37-9.19-26.79c7.75-20.42,47.49-17.1,47.05,5.81,0,0-24.54,10.87-37.86,20.98Z"/><path class="cls-14" d="M166.52,122.66s-1.44-11.18,14.89-13.73c16.33-2.55,15.24,18.24,6.16,24.02-6.52,4.15-20.44,4.9-21.06-10.29Z"/><path class="cls-14" d="M82.81,170.63s-.72-5.59,7.45-6.86,7.62,9.12,3.08,12.01c-3.26,2.08-10.22,2.45-10.53-5.15Z"/><path class="cls-14" d="M170.15,182.59s-1.06-8.24,10.97-10.11c12.03-1.88,11.23,13.44,4.54,17.7-4.81,3.06-15.06,3.61-15.51-7.59Z"/><path class="cls-14" d="M254.66,201.89s-.53-4.12,5.49-5.06,5.61,6.72,2.27,8.85c-2.4,1.53-7.53,1.81-7.76-3.79Z"/><path class="cls-17" d="M146.17,439.56s-35.73,4.84-30.79-24.19,14.16-9.42,28.99-3.14c14.83,6.27,25.1,8.56,23.39,15.4s-21.58,11.93-21.58,11.93Z"/><g><path d="M65.29,337.61c1.48,.08,2.96,.11,4.44,.22,3.03,.23,6.06,.51,9.09,.75,2.55,.2,5.11,.34,7.66,.54,2.39,.18,4.77,.42,7.16,.6,1.42,.11,2.86,.1,4.28,.22,2.84,.23,5.69,.47,8.53,.75,3.63,.36,7.27,.75,10.89,1.16,.27,.03,.68,.28,.72,.49,.35,1.65,.75,3.3,.33,5.02-.56,2.28-2.26,3.5-4.12,4.59-1.03,.61-2.09,.64-3.26,.45-2.41-.4-4.83-.74-7.26-1.01-3.9-.43-7.81-.83-11.72-1.16-3.92-.33-7.84-.7-11.77-.77-7.58-.15-15.16-.14-22.74-.11-2.12,0-4.22-1.79-4.64-3.66-.46-2.03-.41-3.98,.5-5.8-.25-.28-.58-.47-.61-.7-.22-1.69-1.35-2.36-2.85-2.76-1.36-.36-1.59-1.22-.71-2.32,.08-.1,.15-.2,.22-.3-1.16-1.35-1.2-1.76-.26-2.74-1.1-.53-1.12-1.52-.96-2.5,.16-.97,.91-1.49,1.79-1.78,.83-.27,1.68-.48,2.52-.71l.08-.27c-.59-.22-1.17-.54-1.78-.64-.87-.14-1.77-.08-2.65-.19-1.76-.23-2.85-1.05-3-2.43-.08-.76,.2-1.56,.35-2.34,.11-.59,.27-1.18,.41-1.77l-.34-.2c-.65,.45-1.27,.93-1.95,1.32-.62,.35-1.3,.85-1.94,.84-1.44-.02-2.94-.1-4.29-.54-2.23-.73-3.72-2.19-3.72-4.96,0-.53,0-1.06,0-1.52-.96-.07-1.94-.06-2.87-.23-2.88-.53-4.93-2.46-5.38-5.08-.15-.87-.11-1.78-.08-2.66,.11-3.49,1.33-6.47,4.21-8.7-.08-.2-.19-.44-.28-.68-.61-1.68-.09-3.49,1.36-4.53,1.24-.89,2.58-1.44,4.16-1.03,.41,.11,.85,.15,1.27,.18,1.03,.07,2.02,.07,2.85-.78,.31-.32,.93-.5,1.39-.47,1.17,.07,2.36,.18,3.49,.48,1.88,.5,3.76,1.06,5.56,1.8,1.45,.6,2.64,1.59,2.71,3.39,0,.2,.2,.45,.38,.58,.88,.66,1.77,1.31,2.67,1.94,1.61,1.12,2,2.11,1.47,4.01-.18,.67-.44,1.32-.64,1.98-.09,.29-.14,.59-.21,.94,2.69-.63,4.35-.12,5.53,.67,1.44,.98,2.23,2.47,1.75,3.91-.32,.96-.9,1.92-1.6,2.65-1.27,1.31-2.75,2.42-4.1,3.65-1.47,1.35-1.51,2.81-.03,4.16,.85,.77,1.83,1.41,2.83,1.98,1.48,.84,2.93,1.7,4.07,3,.91,1.03,1.62,2.17,1.78,3.54,.26,2.16-.97,3.62-2.5,4.86-.87,.71-1.88,1.25-2.81,1.89-.79,.55-1.56,1.15-1.89,2.38,2.24,.14,4.36,.27,6.48,.39Zm-7.36-.7c.37-1.68,1.74-2.48,2.99-3.42,1.13-.85,2.33-1.68,3.26-2.72,1.35-1.5,1.29-3.39-.17-4.77-1.46-1.37-3.13-2.52-4.73-3.74-.94-.72-1.98-1.31-2.83-2.12-1.54-1.47-1.53-3.81,.01-5.25,1.29-1.21,2.73-2.27,4.07-3.43,.76-.66,1.38-1.45,1.44-2.53,.08-1.65-1.19-3.09-3.05-3.54-1.1-.27-2.17-.22-3.24,.18-.83,.31-1.06,.18-.98-.7,.07-.73,.21-1.5,.54-2.14,1.04-2.04,.19-3.82-1.09-5.02-.31-.29-.88-.37-1.35-.41-1.02-.09-1.51-.48-1.69-1.46-.29-1.57-1.06-2.79-2.57-3.47-2.26-1.02-4.61-1.7-7.07-2.04-1.03-.14-1.93,.08-2.63,.87-.58,.66-1.29,.73-2.06,.47-1.53-.52-3.04-.57-4.54,.12-2.18,1.01-2.74,2.78-1.45,4.79,.37,.58,.32,.82-.35,1.12-.68,.3-1.43,.73-1.83,1.33-1.84,2.74-2.57,5.78-1.88,9.03,.47,2.22,2.2,3.66,4.56,3.93,.91,.1,1.86,0,2.78-.1,.57-.06,.87,.02,.87,.68,0,.89,.02,1.78,.13,2.65,.37,3.14,3.24,4.26,5.6,4.18,1.32-.05,2.5-.49,3.5-1.44,.39-.37,.96-.6,1.48-.75,1.21-.33,2.08,.48,1.83,1.73-.19,.97-.54,1.9-.79,2.86-.23,.86,.05,1.52,.87,1.83,.54,.21,1.14,.3,1.72,.35,1.07,.09,2.15,.06,3.22,.2,.45,.06,.92,.33,1.26,.63,.81,.72,.69,1.46-.31,1.93-.6,.28-1.26,.44-1.9,.64-.31,.1-.65,.11-.92,.26-.51,.29-1.21,.55-1.4,1.01-.3,.7,.41,1.2,.89,1.66,.27,.26,.61,.45,.88,.7,.16,.15,.38,.43,.33,.56-.08,.21-.33,.41-.55,.49-.74,.27-.82,.42-.34,1.06,.39,.5,.74,.93,.08,1.49-.08,.07,.07,.58,.24,.72,.32,.27,.72,.48,1.13,.6,.96,.29,1.48,.89,1.62,1.87,.05,.3,.17,.59,.31,1.06,1.25-2.31,1.47-2.41,4.12-1.97Zm-.57,10.9c.43,0,.7,0,.97,0,7.31,0,14.62-.11,21.92,.07,4.78,.12,9.55,.65,14.33,1.05,2.92,.25,5.83,.61,8.74,.87,.23,.02,.61-.22,.71-.44,.92-2,1.14-4.03,.3-6.16-.4-1-.71-1.65-2.02-1.67-2.44-.04-4.88-.34-7.32-.54-3.14-.26-6.27-.55-9.41-.78-2.71-.2-5.43-.33-8.14-.52-2.66-.18-5.31-.38-7.97-.61-2.78-.25-5.56-.56-8.34-.84-1.04-.11-2.08-.22-3.25-.34,2.09,3.41,1.58,8.08-.53,9.9Zm47.84,2.15c2.26,.36,4.47,.74,6.69,1.07,1.24,.18,2.15-.57,3.02-1.28,1.46-1.19,2.85-2.47,2.58-4.63-.09-.74-.23-1.48-.37-2.33l-12.12-1c1.29,2.76,1.42,5.45,.21,8.17Zm-47.47-4.95c.83-2.03,.57-4.06-.38-5.99-.48-.97-.96-1.06-1.83-.4-1.01,.76-1.32,1.94-1.6,3.08-.51,2.03-.03,3.88,1.25,5.56,1.44-.15,2.11-1.14,2.56-2.25Z"/><path class="cls-24" d="M53.51,337.82c-.15-.98-.67-1.58-1.62-1.87-.4-.12-.8-.33-1.13-.6-.17-.14-.32-.65-.24-.72,.66-.56,.31-.99-.08-1.49-.49-.63-.4-.79,.34-1.06,.22-.08,.48-.29,.55-.49,.05-.13-.17-.41-.33-.56-.27-.26-.61-.45-.88-.7-.48-.46-1.19-.96-.89-1.66,.19-.46,.89-.72,1.4-1.01,.27-.15,.62-.16,.92-.26,.64-.2,1.3-.36,1.9-.64,.99-.47,1.11-1.21,.31-1.93-.34-.31-.82-.58-1.26-.63-1.06-.13-2.15-.1-3.22-.2-.58-.05-1.18-.15-1.72-.35-.82-.31-1.1-.96-.87-1.83,.25-.96,.6-1.89,.79-2.86,.24-1.25-.63-2.06-1.83-1.73-.53,.14-1.1,.38-1.48,.75-1,.95-2.18,1.39-3.5,1.44-2.36,.09-5.23-1.04-5.6-4.18-.1-.88-.12-1.77-.13-2.65,0-.65-.3-.73-.87-.68-.92,.09-1.87,.2-2.78,.1-2.36-.27-4.09-1.72-4.56-3.93-.69-3.26,.04-6.3,1.88-9.03,.4-.59,1.15-1.02,1.83-1.33,.67-.3,.72-.54,.35-1.12-1.28-2.01-.72-3.78,1.45-4.79,1.5-.7,3.01-.64,4.54-.12,.77,.26,1.47,.19,2.06-.47,.7-.79,1.6-1.02,2.63-.87,2.46,.34,4.81,1.03,7.07,2.04,1.51,.68,2.28,1.9,2.57,3.47,.18,.97,.67,1.37,1.69,1.46,.46,.04,1.03,.12,1.35,.41,1.29,1.19,2.14,2.98,1.09,5.02-.33,.64-.47,1.41-.54,2.14-.09,.88,.15,1.01,.98,.7,1.07-.39,2.14-.45,3.24-.18,1.86,.46,3.12,1.9,3.05,3.54-.05,1.08-.68,1.86-1.44,2.53-1.34,1.17-2.77,2.22-4.07,3.43-1.55,1.45-1.56,3.78-.01,5.25,.85,.81,1.9,1.4,2.83,2.12,1.59,1.22,3.27,2.37,4.73,3.74,1.46,1.38,1.52,3.27,.17,4.77-.94,1.04-2.13,1.87-3.26,2.72-1.25,.94-2.62,1.74-2.99,3.42-2.65-.44-2.87-.34-4.12,1.97-.14-.47-.26-.76-.31-1.06Z"/><path class="cls-14" d="M61.14,338.26c2.78,.28,5.56,.59,8.34,.84,2.65,.24,5.31,.43,7.97,.61,2.71,.19,5.43,.32,8.14,.52,3.14,.23,6.27,.52,9.41,.78,2.44,.2,4.88,.5,7.32,.54,1.3,.02,1.62,.67,2.02,1.67,.84,2.13,.62,4.15-.3,6.16-.1,.22-.48,.46-.71,.44-2.92-.27-5.82-.63-8.74-.87-4.77-.4-9.54-.93-14.33-1.05-7.3-.18-14.62-.06-21.92-.07-.27,0-.55,0-.97,0,2.11-1.82,2.62-6.49,.53-9.9,1.17,.12,2.21,.23,3.25,.34Z"/><path class="cls-18" d="M117.12,342.8c.14,.85,.28,1.58,.37,2.33,.27,2.17-1.12,3.44-2.58,4.63-.87,.71-1.78,1.46-3.02,1.28-2.22-.33-4.43-.71-6.69-1.07,1.21-2.72,1.08-5.41-.21-8.17l12.12,1Z"/><path class="cls-21" d="M53.92,341.71c.28-1.14,.59-2.31,1.6-3.08,.87-.66,1.35-.57,1.83,.4,.96,1.93,1.22,3.95,.38,5.99-.45,1.1-1.12,2.09-2.56,2.25-1.28-1.68-1.76-3.53-1.25-5.56Z"/></g><path class="cls-2" d="M199.04,215.48c18.75,4.12,46.46,11.44,64.29,2.65-16.01,12.77-47.25,5.45-64.29-2.65h0Z"/><path class="cls-2" d="M213.96,227.32c18.57,8.23,42.69,5.41,62.3,2.49,2.99-.53,5.98-1.07,9.01-1.48-2.86,1.05-5.78,1.98-8.69,2.92-13.27,3.69-27.32,5.49-41.05,3.75-7.53-1.14-15.42-2.98-21.57-7.67h0Z"/><path class="cls-2" d="M124.86,225.63c-14.32,12.99-36.86,20.76-55.47,13.11,19.52,3.28,38.62-3.71,55.47-13.11h0Z"/></g><path class="cls-22" d="M145.91,474.24c-1.07,.12-2.14,.22-3.21,.29-8.02,.55-46.25,3.72-31.54,13.84,16.39,11.28,61.16-1.66,72.12-2.99,10.78-1.31-.62-15.15-37.37-11.15Z"/></g></g></g></g></svg>