<?xml version="1.0" encoding="UTF-8"?><svg id="Layer_1" xmlns="http://www.w3.org/2000/svg" viewBox="0 0 2575.83 1170"><defs><style>.cls-1{fill:#d1d3d4;}.cls-1,.cls-2{opacity:.94;}.cls-2{fill:#e6e7e8;}</style></defs><path class="cls-1" d="M1689.99,896.11H760.55c-21.21,0-35.37-17.18-31.63-38.38l91.96-521.23c3.74-21.2,23.97-38.38,45.18-38.38h929.44c21.21,0,35.37,17.18,31.63,38.38l-91.96,521.23c-3.74,21.2-23.97,38.38-45.18,38.38Z"/><path class="cls-2" d="M1666.18,871.88H736.74c-21.21,0-35.37-17.18-31.63-38.38l91.96-521.23c3.74-21.2,23.97-38.38,45.18-38.38h929.44c21.21,0,35.37,17.18,31.63,38.38l-91.96,521.23c-3.74,21.2-23.97,38.38-45.18,38.38Z"/></svg>