<?xml version="1.0" encoding="utf-8"?>
<svg viewBox="592.248 273.89 1235.481 622.22" xmlns="http://www.w3.org/2000/svg">
  <defs>
    <style>.cls-1{fill:#d1d3d4;}.cls-1,.cls-2{opacity:.94;}.cls-2{fill:#e6e7e8;}</style>
  </defs>
  <path class="cls-1" d="M1689.99,896.11H760.55c-21.21,0-35.37-17.18-31.63-38.38l91.96-521.23c3.74-21.2,23.97-38.38,45.18-38.38h929.44c21.21,0,35.37,17.18,31.63,38.38l-91.96,521.23c-3.74,21.2-23.97,38.38-45.18,38.38Z"/>
  <path class="cls-2" d="M1666.18,871.88H736.74c-21.21,0-35.37-17.18-31.63-38.38l91.96-521.23c3.74-21.2,23.97-38.38,45.18-38.38h929.44c21.21,0,35.37,17.18,31.63,38.38l-91.96,521.23c-3.74,21.2-23.97,38.38-45.18,38.38Z"/>
  <g class="cls-33" transform="matrix(1, 0, 0, 1, 587.265996, 391.422061)" style="isolation: isolate;">
    <g id="Layer_1">
      <g>
        <g>
          <path class="cls-19" d="M 161.335 45.705 L 35.882 45.705 C 22.024 45.705 10.791 34.472 10.791 20.614 L 10.791 -6.566 C 10.791 -20.424 22.024 -31.657 35.882 -31.657 L 43.409 -31.657 C 45.18 -38.259 45.545 -47.076 39.098 -54.829 C 39.098 -54.829 65.089 -49.103 70.946 -31.657 L 161.335 -31.657 C 175.193 -31.657 186.426 -20.424 186.426 -6.566 L 186.426 20.614 C 186.426 34.472 175.193 45.705 161.335 45.705 Z" style="fill: rgb(255, 255, 255);" transform="matrix(-1, 0, 0, -1, 197.216995, -9.124001)"/>
          <g>
            <path class="cls-25" d="M 58.098 -6.636 L 58.098 -25.815 L 72.166 -25.815 L 72.166 -24.533 L 73.572 -24.533 L 73.572 -15.585 L 72.166 -15.585 L 72.166 -14.303 L 62.324 -14.303 L 62.324 -6.628 L 58.106 -6.628 L 58.098 -6.636 Z M 69.354 -18.14 L 69.354 -21.978 L 62.324 -21.978 L 62.324 -18.14 L 69.354 -18.14 Z" style="fill: rgb(35, 31, 32);"/>
            <path class="cls-25" d="M 80.882 -6.636 L 80.882 -7.918 L 79.476 -7.918 L 79.476 -25.815 L 83.694 -25.815 L 83.694 -10.473 L 90.724 -10.473 L 90.724 -25.815 L 94.942 -25.815 L 94.942 -7.918 L 93.536 -7.918 L 93.536 -6.636 L 80.874 -6.636 L 80.882 -6.636 Z" style="fill: rgb(35, 31, 32);"/>
            <path class="cls-25" d="M 100.853 -6.636 L 100.853 -25.815 L 105.071 -25.815 L 105.071 -18.14 L 112.101 -18.14 L 112.101 -25.815 L 116.319 -25.815 L 116.319 -16.866 L 114.913 -16.866 L 114.913 -15.585 L 116.319 -15.585 L 116.319 -6.636 L 112.101 -6.636 L 112.101 -14.311 L 105.071 -14.311 L 105.071 -6.636 L 100.853 -6.636 Z" style="fill: rgb(35, 31, 32);"/>
            <path class="cls-25" d="M 122.231 -6.636 L 122.231 -7.918 L 123.637 -7.918 L 123.637 -10.473 L 125.043 -10.473 L 125.043 -13.029 L 126.449 -13.029 L 126.449 -15.585 L 127.855 -15.585 L 127.855 -16.866 L 129.261 -16.866 L 129.261 -19.422 L 130.667 -19.422 L 130.667 -21.978 L 122.231 -21.978 L 122.231 -25.815 L 137.705 -25.815 L 137.705 -24.533 L 136.299 -24.533 L 136.299 -21.978 L 134.893 -21.978 L 134.893 -19.422 L 133.487 -19.422 L 133.487 -16.866 L 132.081 -16.866 L 132.081 -15.585 L 130.675 -15.585 L 130.675 -13.029 L 129.269 -13.029 L 129.269 -10.473 L 137.705 -10.473 L 137.705 -6.636 L 122.231 -6.636 Z" style="fill: rgb(35, 31, 32);"/>
          </g>
        </g>
        <g>
          <g>
            <path class="cls-3" d="M97.73,286.81s-60.69-2.98-84.49-24.77c-9.03-8.27-10.82-21.91-4.55-32.43,2.72-4.56,6.89-9.56,13.2-13.42,8.02-4.92,14.42-12.07,18-20.77,5.68-13.8,9.04-34.48,13.88-48.19,8.51-24.11,31.26-70.93,110.66-63.27,79.4,7.66,93,8.65,111.28,62.53,18.29,53.88,19.07,53.39,29.41,62.01,10.33,8.63,40.96,35.45-21.51,62.6-62.47,27.15-185.87,15.71-185.87,15.71Z" style="fill: rgb(40, 29, 33); stroke: rgb(35, 31, 32); stroke-miterlimit: 10; stroke-width: 5px;"/>
            <path class="cls-1" d="M284.66,221.52c42.25,13.99,5.94,31.54,5.94,31.54-106.11,40.44-222.98,15.95-254.89,3.34-20.74-8.2-10.29-17.34-.43-22.73,4.91-2.69,10.15-4.69,15.56-6.13,25.94-6.86,145.11-35.39,233.81-6.02Z" style="stroke: rgb(35, 31, 32); stroke-miterlimit: 10; stroke-width: 5px;"/>
            <path class="cls-19" d="M162.24,86.12s-2.93,28.46,35.17,32.28c38.1,3.82,41.92-19.69,41.92-19.69,0,0-20.61-10.11-77.09-12.59Z" style="fill: rgb(255, 255, 255);"/>
            <path class="cls-19" d="M140.22,131.9c-.23-7.23-3.38-14.07-8.46-19.22-6.78-6.87-19.97-15.03-38.54-3.73-25.06,15.25-8.67,51.26,9.28,52.17,17.95,.91,29.23-4,36.2-20.23,1.26-2.95,1.62-6.1,1.52-8.99Z" style="fill: rgb(255, 255, 255);"/>
            <path class="cls-19" d="M79.87,165.63c-3.55-1.8-7.73-1.98-11.44-.55s-8.07,4.65-8.14,11.42c-.12,12.46,17.08,11.22,21.06,4.74,3.99-6.48,2.49-11.59,.87-13.84-.49-.67-1.36-1.27-2.36-1.77Z" style="fill: rgb(255, 255, 255);"/>
            <path class="cls-19" d="M186.99,143.32s-30.55-7.52-27.94,15.97,30.12,16.5,34.91,11.33c6.39-6.9,9.62-19-6.96-27.29Z" style="fill: rgb(255, 255, 255);"/>
            <path class="cls-2" d="M122.66,229.53c.29-.75,.65-1.48,.96-2.23,1.04-2.5,6.93-11.35,37.61-9.21,35.63,2.48,46.68,.68,59.31,11.5,12.63,10.82,31.07,30.98,3.56,62.03-27.51,31.05-23.49,25.03-23.71,48.59s27.27,83.57,14.62,100.37c-12.65,16.8-23.13,26.62-55.86,19.85-32.73-6.76-86.18-23.13-78.77-44.73,4.74-13.8,12.33-25.29,17.19-31.78,3.8-5.08,6.13-11.11,6.64-17.43,.81-10.21-.11-25.88-9.35-41.89-8.57-14.84-2.06-27.33,10.5-54.53,5-10.83,10.95-23.98,17.3-40.55Z" style="stroke: rgb(35, 31, 32); stroke-miterlimit: 10; stroke-width: 5px;"/>
            <path class="cls-19" d="M275.95,154.81c-1.61-4.51-5.62-7.75-10.38-8.3-7.72-.9-18.01,.62-16.79,15.54,1.31,16,11.07,23.39,21.25,22.29,8.09-.88,13.13-9.27,10.39-16.94l-4.48-12.58Z" style="fill: rgb(255, 255, 255);"/>
            <path class="cls-9" d="M194.22,354.06c0-12.08-18.32-12.69-37.18-12.69s-40.07-1.75-40.07,10.33,14.45,35.56,40.63,35.56,36.62-21.12,36.62-33.2Z" style="fill: rgb(245, 153, 91);"/>
            <path class="cls-12" d="M141.07,341.3c-6.23,7.66-10.72,19.93-12.1,34.24,6.83,6.64,16.46,11.71,28.63,11.71,11.53,0,20.01-4.1,25.89-9.72-1.12-14.92-5.59-27.8-11.95-35.84-4.58-.29-9.52-.33-14.5-.33-5.31,0-10.81-.14-15.97-.07Z" style="fill: rgb(245, 137, 94);"/>
            <path class="cls-14" d="M125.76,372.42c6.43,8.4,18.04,13.51,31.82,14.06,10.72,.43,24.49-5.08,30.21-13.86-13.94,13.86-47.01,13.86-62.02-.2Z" style="fill: rgb(240, 93, 85);"/>
            <path class="cls-18" d="M117.13,352.5c.8,2.62,15.59,16.18,26.03,18.03,10.44,1.85,41.55,6.54,51.99-16.27-4.35-33.94-26.2-53.91-40.44-53.51-21.45,.62-40.12,43.42-37.58,51.75Z" style="fill: rgb(229, 107, 78);"/>
            <path class="cls-15" d="M118.34,350.9c.76,2.5,15.55,15.05,25.47,16.82,9.92,1.77,40.49,6.88,50.41-14.95-4.14-32.48-25.97-49.77-39.5-49.37-20.38,.59-38.79,39.54-36.37,47.5Z" style="fill: rgb(241, 87, 67);"/>
            <path class="cls-15" d="M157.67,362.84c-15.77-.05-30.1-4.36-40.72-11.35,.04,.37,.1,.71,.19,1,.8,2.62,15.59,16.18,26.03,18.03,10.44,1.85,41.55,6.54,51.99-16.27-.02-.17-.05-.34-.07-.5-10.2,5.72-23.23,9.14-37.42,9.09Z" style="fill: rgb(241, 87, 67);"/>
            <path class="cls-27" d="M118.34,352.21c.76,2.49,15.55,14.94,25.47,16.7,9.92,1.76,40.49,6.83,50.41-14.84-4.14-32.25-25.97-49.4-39.5-49.01-20.38,.59-38.79,39.25-36.37,47.16Z" style="fill: rgb(64, 51, 46);"/>
            <path class="cls-30" d="M123.57,351.33c.65,2.33,13.4,14.03,21.95,15.68,8.55,1.65,34.88,6.42,43.43-13.94-3.57-30.28-22.38-46.39-34.03-46.03-17.56,.55-33.42,36.86-31.34,44.28Z" style="fill: rgb(59, 46, 42);"/>
            <path class="cls-24" d="M128.45,354.01c.57,1.94,11.42,11.68,18.67,13.06,7.25,1.37,29.59,5.35,36.73-11.61-3.18-25.22-19.2-38.64-29.07-38.34-14.87,.46-28.13,30.7-26.33,36.89Z" style="fill: rgb(52, 39, 35);"/>
            <path class="cls-26" d="M136.93,355.58c.39,1.36,7.95,8.2,12.99,9.17,5.04,.97,20.58,3.75,25.54-8.15-2.21-17.7-13.35-27.13-20.22-26.91-10.34,.32-19.56,21.55-18.31,25.89Z" style="fill: rgb(35, 26, 24);"/>
            <path class="cls-24" d="M150.52,330.39c8.3-1.47-.82,13.18,5.43,13.59,8.93,.6-3.02-16.23,7.8-12.63,0,0-2.94-4.08-8.62-4.44-5.68-.35-4.61,3.47-4.61,3.47Z" style="fill: rgb(52, 39, 35);"/>
            <path class="cls-22" d="M128.12,361.29s2.68-11.42,17.16-12.74l-7.11,17.57s-4.69-.73-10.05-4.83Z" style="fill: rgb(236, 72, 69);"/>
            <path class="cls-22" d="M185.65,364.75s-4.04-5.96-9.67-9.03l.09,13.87s4.47-.73,9.58-4.83Z" style="fill: rgb(236, 72, 69);"/>
            <path class="cls-20" d="M189.83,360.75c-.25-.08-.48-.15-.71-.19-1.32-.28-7.29,7.91-32.44,6.88-15.28-.62-32.04-10.4-32.44-9.37l-.07,.1c4.54,4.88,12.83,9.09,18.95,10.56,12.15,2.93,33.58,7.6,46.71-7.98Z" style="fill: rgb(255, 239, 218);"/>
            <path class="cls-17" d="M156.68,367.44c-9.53-.39-19.63-4.33-25.98-7-.18,.86-.34,1.73-.48,2.62,4.15,2.65,8.97,4.72,12.89,5.67,10.66,2.57,28.46,6.48,41.53-3.11-.07-.83-.17-1.64-.29-2.45-4.42,2.2-12.6,4.89-27.68,4.28Z" style="fill: rgb(243, 213, 178);"/>
            <path class="cls-23" d="M158.2,351.64c-8.32-7.27-23.94-3.41-24.22,12.38-.18,9.96-4.47,46.67,4.11,52.72,8.58,6.05,34.98,17.49,44.15-8.79,1.43-4.1-2.14-18.55-1.61-26.17,.22-3.12,3.04-20.11-.71-23.63-3.75-3.51-12.96-12.77-21.72-6.52Z" style="fill: rgb(243, 125, 121);"/>
            <path class="cls-8" d="M178.1,381.25c-.02,8.82-3.21,20.27-8.2,23.79-5.69,4.02-14.2-3.65-8.27-6.33,7.68-3.47,16.49-26.24,16.47-17.46Z" style="fill: rgb(245, 142, 135);"/>
            <path class="cls-16" d="M180.63,382.23c.22-3.12,3.04-20.11-.71-23.63-.2-.19-.42-.4-.66-.62,.59,2.97,.94,6.17,1.01,9.6,.48,21.84-1.13,47.4-22.79,46.13-12.05-.71-21.97-19.46-22.46-41.3-.14-6.49,.59-12.62,2-18.03-1.82,2.53-2.97,5.88-3.05,10.07-.18,9.96-4.47,46.67,4.11,52.72,8.58,6.05,34.98,17.49,44.15-8.79,1.43-4.1-2.14-18.55-1.61-26.17Z" style="fill: rgb(242, 103, 103);"/>
            <path class="cls-21" d="M132.41,323.94c-1.4,.09,5.09-11.13,15.28-16.4,10.19-5.27,25.02,1.9,32.98,15.67,1.61,2.78-10.46-4.1-26.28-3.95-15.42,.14-19.71,4.54-21.99,4.69Z" style="fill: rgb(255, 254, 240);"/>
            <path class="cls-20" d="M180.19,322.39c-3.53-.72-13.68-4.61-26.04-4.5-13.3,.12-18.61,3.18-21.38,4.29-.56,1.11-.7,1.78-.35,1.76,2.28-.15,6.57-4.54,21.99-4.69,15.82-.15,27.88,6.74,26.28,3.95-.16-.28-.32-.55-.49-.82Z" style="fill: rgb(255, 239, 218);"/>
            <path class="cls-17" d="M146.21,311.83c10.33-4.79,24.94,.68,34.2,12.04,.42-.01,.52-.21,.26-.66-7.96-13.77-22.79-20.94-32.98-15.67-7.53,3.9-13.04,11.04-14.83,14.46,3.04-3.44,7.68-7.54,13.35-10.17Z" style="fill: rgb(243, 213, 178);"/>
            <path class="cls-30" d="M171.96,319.77c-.34,2.78-1.27,3.44-1.27,3.44l2.35-.95c-.8-.73-1.07-2.49-1.07-2.49Z" style="fill: rgb(59, 46, 42);"/>
            <polygon class="cls-17" points="155.55 309.14 155.52 309.26 155.98 314.41 156.8 309.01 155.55 309.14" style="fill: rgb(243, 213, 178);"/>
            <polygon class="cls-17" points="143.58 311.5 143.55 311.62 144.01 316.78 144.83 311.37 143.58 311.5" style="fill: rgb(243, 213, 178);"/>
            <path class="cls-16" d="M167.44,404.4c-.41-.52-1.4-.33-2.22,.42-.82,.76-1.15,1.8-.74,2.33,.41,.52,1.4,.33,2.22-.42,.82-.76,1.15-1.8,.74-2.33Z" style="fill: rgb(242, 103, 103);"/>
            <path class="cls-16" d="M169.47,401.44c-.33-.42-.96-.43-1.4,0-.45,.42-.54,1.1-.22,1.52,.33,.42,.96,.43,1.4,0,.45-.42,.54-1.1,.22-1.52Z" style="fill: rgb(242, 103, 103);"/>
            <path class="cls-16" d="M161.76,408.13c-.29-.46-.91-.53-1.4-.17-.48,.36-.64,1.03-.36,1.49,.29,.46,.91,.53,1.4,.17,.48-.36,.64-1.03,.36-1.49Z" style="fill: rgb(242, 103, 103);"/>
            <path class="cls-16" d="M165.62,400.31c-.24-.38-.76-.44-1.17-.13-.41,.31-.55,.87-.31,1.25,.24,.38,.76,.44,1.17,.13,.41-.31,.55-.87,.31-1.25Z" style="fill: rgb(242, 103, 103);"/>
            <path class="cls-8" d="M160.7,349.86c-4.56,3.52-2.55,17.87,2.68,25.92,5.23,8.05,16.87-3.66,15.46-17.56-.3-3-13.37-12.05-18.14-8.37Z" style="fill: rgb(245, 142, 135);"/>
            <path class="cls-8" d="M157.75,352.11c1.82,2.37,4.68,30.8-1.61,37.88-6.29,7.08-23.45-22.04-19.57-35.37,.64-2.21,4.98-5.93,9.65-6.33,4.16-.36,8.14-.59,11.53,3.81Z" style="fill: rgb(245, 142, 135);"/>
            <path class="cls-16" d="M158.2,351.64c-1.01-.88-2.13-1.6-3.31-2.15,1.67,1.54,3.52,4.16,3.76,8.28,0,0-.04-4.2,1.44-7.24-.63,.3-1.26,.66-1.88,1.11Z" style="fill: rgb(242, 103, 103);"/>
            <path class="cls-16" d="M148.87,388.7c-.24-.38-.76-.44-1.17-.13-.41,.31-.55,.87-.31,1.25,.24,.38,.76,.44,1.17,.13,.41-.31,.55-.87,.31-1.25Z" style="fill: rgb(242, 103, 103);"/>
            <path class="cls-16" d="M166.53,390.31c-.24-.38-.76-.44-1.17-.13-.41,.31-.55,.87-.31,1.25,.24,.38,.76,.44,1.17,.13,.41-.31,.55-.87,.31-1.25Z" style="fill: rgb(242, 103, 103);"/>
            <path class="cls-16" d="M153.13,405.69c-.24-.38-.76-.44-1.17-.13-.41,.31-.55,.87-.31,1.25,.24,.38,.76,.44,1.17,.13,.41-.31,.55-.87,.31-1.25Z" style="fill: rgb(242, 103, 103);"/>
            <path class="cls-23" d="M170.15,372.29c-.24-.38-.76-.44-1.17-.13-.41,.31-.55,.87-.31,1.25,.24,.38,.76,.44,1.17,.13,.41-.31,.55-.87,.31-1.25Z" style="fill: rgb(243, 125, 121);"/>
            <path class="cls-23" d="M174.98,371.56c-.24-.38-.76-.44-1.17-.13-.41,.31-.55,.87-.31,1.25,.24,.38,.76,.44,1.17,.13,.41-.31,.55-.87,.31-1.25Z" style="fill: rgb(243, 125, 121);"/>
            <path class="cls-11" d="M175.71,358.42c.17-.27,0-.73-.39-1.04-.39-.31-.85-.34-1.02-.07-.17,.27,0,.73,.39,1.04,.39,.31,.85,.34,1.03,.07Z" style="fill: rgb(248, 178, 179);"/>
            <path class="cls-11" d="M148.99,352.96c.17-.27,0-.73-.39-1.04-.39-.31-.85-.34-1.02-.07-.17,.27,0,.73,.39,1.04,.39,.31,.85,.34,1.03,.07Z" style="fill: rgb(248, 178, 179);"/>
            <path class="cls-11" d="M173.74,354.91c.17-.27,0-.73-.39-1.04-.39-.31-.85-.34-1.03-.07-.17,.27,0,.73,.39,1.04,.39,.31,.85,.34,1.03,.07Z" style="fill: rgb(248, 178, 179);"/>
            <path class="cls-11" d="M178.3,359.64c.11-.17,0-.48-.27-.68-.26-.2-.56-.23-.68-.06-.11,.17,0,.48,.27,.68,.26,.2,.56,.23,.68,.06Z" style="fill: rgb(248, 178, 179);"/>
            <path class="cls-11" d="M168.05,353.06c.11-.17,0-.48-.27-.68-.26-.2-.56-.23-.68-.06-.11,.17,0,.48,.27,.68,.26,.2,.56,.23,.68,.06Z" style="fill: rgb(248, 178, 179);"/>
            <path class="cls-11" d="M153.19,351.32c.11-.17,0-.48-.27-.68-.26-.2-.56-.23-.68-.06-.11,.17,0,.48,.27,.68,.26,.2,.56,.23,.68,.06Z" style="fill: rgb(248, 178, 179);"/>
            <path class="cls-11" d="M156.14,356.11c.11-.17,0-.48-.27-.68-.26-.2-.56-.23-.68-.06-.11,.17,0,.48,.27,.68,.26,.2,.56,.23,.68,.06Z" style="fill: rgb(248, 178, 179);"/>
            <path class="cls-23" d="M169.17,376.68c-.24-.38-.76-.44-1.17-.13-.41,.31-.55,.87-.31,1.25,.24,.38,.76,.44,1.17,.13,.41-.31,.55-.87,.31-1.25Z" style="fill: rgb(243, 125, 121);"/>
            <path class="cls-23" d="M156.7,386.2c-.24-.38-.76-.44-1.17-.13-.41,.31-.55,.87-.31,1.25,.24,.38,.76,.44,1.17,.13,.41-.31,.55-.87,.31-1.25Z" style="fill: rgb(243, 125, 121);"/>
            <path class="cls-23" d="M145.52,380.94c-.24-.38-.88-.35-1.43,.07-.55,.42-.81,1.07-.57,1.45,.24,.38,.88,.35,1.43-.07,.55-.42,.8-1.07,.57-1.45Z" style="fill: rgb(243, 125, 121);"/>
            <path class="cls-16" d="M175.62,381.98c-.17-.27-.59-.27-.95,0-.35,.27-.51,.7-.34,.97,.17,.27,.59,.27,.95,0,.35-.27,.51-.7,.34-.97Z" style="fill: rgb(242, 103, 103);"/>
            <path class="cls-16" d="M174.08,393.61c-.17-.27-.59-.27-.95,0-.35,.27-.51,.7-.34,.97,.17,.27,.59,.27,.95,0,.35-.27,.51-.7,.34-.97Z" style="fill: rgb(242, 103, 103);"/>
            <path class="cls-22" d="M138.96,416.07c-8.73-6.17-4.47-43.42-4.31-53.56,.05-3.51,.85-6.42,2.16-8.75,.03-.14,.07-.28,.1-.42-1.84,2.53-3.01,5.92-3.08,10.2-.15,10.14-4.42,47.4,4.32,53.57,7.6,5.36,28.79,14.81,39.97-.53-11.36,13.87-31.74,4.74-39.16-.51Z" style="fill: rgb(236, 72, 69);"/>
            <path class="cls-8" d="M181.26,405.71c.16,2.79-2.32,10.64-8.49,14.45-4.74,2.93-3.66-3.54-.56-4.75,4.47-1.76,8.96-11.26,9.05-9.7Z" style="fill: rgb(245, 142, 135);"/>
            <path class="cls-30" d="M138.44,322.5c2.28-.44,3.28-1.1,3.22-3.08,0,0,.2,1.46,2.88,1.54,0,0-3.69,3.15-6.1,1.54Z" style="fill: rgb(59, 46, 42);"/>
            <polygon class="cls-21" points="166.16 314.73 166.63 310.63 167.84 315.24 166.16 314.73" style="fill: rgb(255, 254, 240);"/>
            <g>
              <path class="cls-7" d="M224.92,295.07c2.74-1.33,6.87,2.86,6.93,1.94,.75-11.55-6.88-19.88-7.07-14.78l.15,12.84Z" style="fill: rgb(170, 103, 98); stroke: rgb(35, 31, 32); stroke-miterlimit: 10; stroke-width: 2px;"/>
              <path class="cls-7" d="M179.49,293.91c-2.54-.87-6.25-3.87-6.32-4.78-.07-.91,7.37-7.94,7.37-7.94l-1.04,12.72Z" style="fill: rgb(170, 103, 98); stroke: rgb(35, 31, 32); stroke-miterlimit: 10; stroke-width: 2px;"/>
              <path class="cls-4" d="M177.82,289.55c1.38-14.63,14.37-26.26,27.65-25.01,13.27,1.25,22.92,14.12,21.54,28.74-1.38,14.63-13.26,25.47-26.53,24.22-13.27-1.25-24.04-13.33-22.66-27.96Z" style="fill: rgb(109, 94, 87); stroke: rgb(35, 31, 32); stroke-miterlimit: 10; stroke-width: 2px;"/>
              <path class="cls-21" d="M180.98,288.96c1.33-14.12,12.25-24.64,24.4-23.49,12.14,1.14,20.91,13.52,19.58,27.63-1.33,14.12-12.02,22.2-24.17,21.05-12.14-1.14-21.14-11.08-19.81-25.2Z" style="fill: rgb(255, 254, 240);"/>
              <path class="cls-10" d="M199.88,310.76c12.14,1.14,22.9-7.62,24.23-21.74,.21-2.27,.16-4.5-.12-6.65,.95,3.33,1.32,6.97,.97,10.73-1.33,14.12-12.09,22.88-24.23,21.74-10.32-.97-18.31-8.79-19.67-19.78,2.61,8.81,9.83,14.85,18.82,15.7Z" style="fill: rgb(246, 231, 208);"/>
              <path class="cls-27" d="M192.37,286.57c.89-5.6,5.89-9.46,11.17-8.62,5.27,.84,8.83,6.06,7.93,11.67-.89,5.6-5.89,9.46-11.17,8.62-5.27-.84-8.83-6.06-7.93-11.67Z" style="fill: rgb(64, 51, 46);"/>
              <path class="cls-32" d="M173.17,289.03c6.89-12.23,16.83-23.77,30.33-22.49,12.14,1.14,26.67,12.67,27.69,24.78-15.37-7.11-43.23-10.46-58.02-2.28Z" style="fill: rgb(223, 86, 86); mix-blend-mode: multiply; opacity: 0.5;"/>
              <path class="cls-19" d="M192.04,292.74c-.68-1.96,0-3.97,1.52-4.5,1.52-.53,3.3,.63,3.98,2.59,.68,1.96,0,3.97-1.52,4.5-1.52,.53-3.3-.63-3.98-2.59Z" style="fill: rgb(255, 255, 255);"/>
              <path class="cls-21" d="M194.21,284.68c.33-.55,1.08-.71,1.68-.35,.6,.36,.81,1.09,.48,1.64-.33,.55-1.08,.71-1.68,.35-.6-.36-.81-1.09-.48-1.64Z" style="fill: rgb(255, 254, 240);"/>
              <path class="cls-6" d="M231.34,286.17c-1.91-6.47-30.96-20.93-56.74,.4,0,0,6.99-25.49,29.67-23.35,26.42,2.49,27.07,22.95,27.07,22.95Z" style="fill: rgb(186, 155, 133); stroke: rgb(35, 31, 32); stroke-miterlimit: 10; stroke-width: 2px;"/>
              <path class="cls-5" d="M231.34,286.17c.37,3.15,.34,5.22,.34,5.22-1.99-6.74-32.39-17.02-57.73-3.35,0,0-.42-.66,.37-3.23,24.19-18.13,49.92-6.36,57.01,1.36Z" style="fill: rgb(135, 111, 98); stroke: rgb(35, 31, 32); stroke-miterlimit: 10; stroke-width: 2px;"/>
            </g>
            <g>
              <path class="cls-31" d="M102.99,414.65c-.11,.23,.75,1.14,1.11,1.15,0,0,1.65-.57,2.02-.78,0,0-3.87,4.99-4.6,6.34-.06,.12-.21,.16-.33,.09l-3.21-1.88s-.99,.41-.8,1.79c0,0,5.89,4.01,8.43,4.93,0,0,.98-1.04,.74-1.46l-3.08-2.04c-.12-.08-.15-.22-.08-.34,.7-1.15,4.17-6.82,5.45-8.26,.08-.1,.1-.22,.04-.33-.18-.3-.6-.89-1.39-1.16-.08-.03-.17-.03-.25,0-.68,.29-3.95,1.72-4.04,1.93Z" style="fill: rgb(77, 62, 56);"/>
              <path class="cls-31" d="M120.54,424.43s.37-.15-1.29-1.23c0,0-.63,.02-2.05,.42-.49-1.41-1.27-2.25-1.27-2.25,0,0-.45-.53-1.17-.34,0,0-3.62-1.16-7.13,4.12-.8,1.2-1.14,2.26-1.2,3.18-.48,.25-.95,.51-1.46,.79,0,0,.27,1.03,.99,1.11,0,0,.26-.13,.68-.32,.74,2.08,3.12,3.17,4.24,3.42,1.77,.41,4.58-.51,6.22-4.75,.47-1.21,.57-2.31,.48-3.27,1.07-.37,2.09-.68,2.98-.88Zm-11.54,1.85c2.43-4.34,5.21-3.85,5.21-3.85,.61-.03,.91,.31,.91,.31,0,0,.43,.47,.8,1.28-1.69,.57-4.09,1.54-7.36,3.2,.12-.3,.26-.61,.44-.94Zm7.02,2.12c-1.28,3.32-3.61,4.33-5,4.01-.99-.23-2.72-1.23-2.83-3.23,2.06-.95,5.23-2.36,8.19-3.44,.08,.78,.01,1.67-.37,2.66Z" style="fill: rgb(77, 62, 56);"/>
              <path class="cls-31" d="M105.76,409.29s.37-.15-1.29-1.23c0,0-.63,.02-2.05,.42-.49-1.41-1.27-2.25-1.27-2.25,0,0-.45-.53-1.17-.34,0,0-3.62-1.16-7.13,4.12-.8,1.2-1.14,2.26-1.2,3.18-.48,.25-.95,.51-1.46,.79,0,0,.27,1.03,.99,1.11,0,0,.26-.13,.68-.32,.74,2.08,3.12,3.17,4.24,3.42,1.77,.41,4.58-.51,6.22-4.75,.47-1.21,.57-2.31,.48-3.27,1.07-.37,2.09-.68,2.98-.88Zm-11.54,1.85c2.43-4.34,5.21-3.85,5.21-3.85,.61-.03,.91,.31,.91,.31,0,0,.43,.47,.8,1.28-1.69,.57-4.09,1.54-7.36,3.2,.12-.3,.26-.61,.44-.94Zm7.02,2.12c-1.28,3.32-3.61,4.33-5,4.01-.99-.23-2.72-1.23-2.83-3.23,2.06-.95,5.23-2.36,8.19-3.44,.08,.78,.01,1.67-.37,2.66Z" style="fill: rgb(77, 62, 56);"/>
            </g>
            <path class="cls-28" d="M192.14,408.43c1.86-5.85,9.89-6.8,12.87-1.43,2.5,4.51-1.82,10.16,.05,18.73,2.24,10.25-12.45,13.06-16.11,19.27-3.66,6.2-18.38-.74-6.37-17.78,5.09-7.22,7.95-13.7,9.56-18.78Z" style="fill: rgb(137, 110, 92);"/>
            <g>
              <path class="cls-29" d="M194.08,229.92c13.21,4.54,25.95,14.93,29.17,29.01-1.57-3.19-3.23-6.23-5.34-8.99-6.32-8.37-14.88-14.65-23.83-20.02h0Z" style="fill: rgb(60, 36, 21);"/>
              <path class="cls-29" d="M204.47,231.68c-3.23,1.67-5.75,2.68-8.18,5.29-.29-4.02,4.69-6.67,8.18-5.29h0Z" style="fill: rgb(60, 36, 21);"/>
              <path class="cls-29" d="M208.56,234.32c-3.23,1.67-5.75,2.68-8.18,5.29-.29-4.02,4.69-6.67,8.18-5.29h0Z" style="fill: rgb(60, 36, 21);"/>
              <path class="cls-29" d="M212.65,236.97c-3.23,1.67-5.75,2.68-8.18,5.29-.29-4.02,4.69-6.67,8.18-5.29h0Z" style="fill: rgb(60, 36, 21);"/>
              <path class="cls-29" d="M216.74,240.27c-3.23,1.67-5.75,2.68-8.18,5.29-.29-4.02,4.69-6.67,8.18-5.29h0Z" style="fill: rgb(60, 36, 21);"/>
              <path class="cls-29" d="M211.25,248.7c3.19-1.73,5.7-2.78,8.08-5.44,.37,4.02-4.56,6.76-8.08,5.44h0Z" style="fill: rgb(60, 36, 21);"/>
              <path class="cls-29" d="M214.27,252.74c3.19-1.73,5.7-2.78,8.08-5.44,.37,4.02-4.56,6.76-8.08,5.44h0Z" style="fill: rgb(60, 36, 21);"/>
              <path class="cls-29" d="M216.74,256.64c3.19-1.73,5.7-2.78,8.08-5.44,.37,4.02-4.56,6.76-8.08,5.44h0Z" style="fill: rgb(60, 36, 21);"/>
            </g>
            <g>
              <path class="cls-13" d="M197.05,219.56c4.78-2.97,10.37-5.23,15.42-7.65,1.7-.82,3.38-1.65,5.2-2.57-.94,1.81-2.38,3.3-3.94,4.57-4.76,3.61-10.68,5.78-16.68,5.65h0Z" style="fill: rgb(2, 2, 2);"/>
              <path class="cls-13" d="M170.88,217.76c.71-3.53,1.99-6.13,3.73-9.26,2.58,3.2,.2,8.56-3.73,9.26h0Z" style="fill: rgb(2, 2, 2);"/>
              <path class="cls-13" d="M144.6,217.76c-2.3-.28-3.86-2.35-3.67-4.6,.08-.76,.43-1.64,1.25-2.01,.4,.78,.77,1.15,1.07,1.59,1.06,1.5,1.56,3.06,1.35,5.03h0Z" style="fill: rgb(2, 2, 2);"/>
              <path class="cls-13" d="M130.32,220.32c-4.11,1.75-8.96,1.03-12.68-1.3-1.24-.82-2.34-1.9-3.06-3.24,1.49,.35,2.76,.76,4.05,1.09,3.86,1.07,7.94,1.9,11.69,3.44h0Z" style="fill: rgb(2, 2, 2);"/>
              <path class="cls-13" d="M121.25,228.6c-9.66,2.08-23.52-.26-28.82-9.47,8.55,6.07,18.86,7.15,28.82,9.47h0Z" style="fill: rgb(2, 2, 2);"/>
              <path class="cls-13" d="M117.73,241.93c-13.49,.56-43.39-2.67-51.53-14.4-.73-1.03-1.03-2.32-1.14-3.51,2.53,7.46,17.48,10.28,24.46,12.11,9.36,2.21,18.78,3.77,28.21,5.79h0Z" style="fill: rgb(2, 2, 2);"/>
              <path class="cls-13" d="M108.74,259.41c-17.19-.95-56.75-8.2-65.27-24.45-.69-1.48-1.03-3.12-.92-4.7,.42,3.18,2.4,5.71,4.71,7.67,7.23,5.84,16.37,8.77,25.1,11.67,10.38,3.4,25.65,7.06,36.37,9.81h0Z" style="fill: rgb(2, 2, 2);"/>
              <path class="cls-13" d="M219.99,226.7c11.19-1.42,22.28-2.96,31.7-9.28,1.33-.88,2.56-1.91,3.84-2.97-.76,1.47-1.75,2.83-2.88,4.08-8.22,8.48-21.48,10.7-32.67,8.17h0Z" style="fill: rgb(2, 2, 2);"/>
              <path class="cls-13" d="M231.69,239.72c16.8-1.49,39.73-2.95,49.14-19.09-.6,2.28-1.66,4.45-3.03,6.43-9.75,13.12-31.09,15.31-46.11,12.65h0Z" style="fill: rgb(2, 2, 2);"/>
              <path class="cls-13" d="M239,254.39c18.62-3.94,48.93-8.8,61.21-24.13-9.28,18.37-42.34,24.43-61.21,24.13h0Z" style="fill: rgb(2, 2, 2);"/>
            </g>
            <g>
              <path class="cls-7" d="M90.21,264.01c-2.49-2.94-9.41-.22-9.01-1.31,5.06-13.74,18.17-19.45,15.77-13.46l-6.76,14.77Z" style="fill: rgb(170, 103, 98); stroke: rgb(35, 31, 32); stroke-miterlimit: 10; stroke-width: 2px;"/>
              <path class="cls-7" d="M143.35,285.98c3.38,.3,9.22-1.27,9.77-2.29,.55-1.02-4.44-12.96-4.44-12.96l-5.32,15.25Z" style="fill: rgb(170, 103, 98); stroke: rgb(35, 31, 32); stroke-miterlimit: 10; stroke-width: 2px;"/>
              <path class="cls-4" d="M147.52,281.8c5.92-17.62-3.14-37.74-19.14-43.11-15.99-5.37-33.76,4.56-39.67,22.18-5.92,17.62,2.25,36.26,18.25,41.63,15.99,5.37,34.64-3.08,40.56-20.7Z" style="fill: rgb(109, 94, 87); stroke: rgb(35, 31, 32); stroke-miterlimit: 10; stroke-width: 2px;"/>
              <path class="cls-21" d="M144.16,279.49c5.71-17.01-1.52-34.78-16.15-39.69-14.63-4.91-31.12,4.9-36.83,21.91-5.71,17.01,2.51,31.84,17.14,36.76,14.63,4.91,30.14-1.96,35.85-18.97Z" style="fill: rgb(255, 254, 240);"/>
              <path class="cls-10" d="M111.11,295c-14.63-4.91-22.57-20.57-16.86-37.58,.92-2.74,2.12-5.29,3.55-7.63-2.81,3.37-5.1,7.38-6.63,11.91-5.71,17.01,2.23,32.67,16.86,37.58,12.43,4.17,25.69-.76,32.9-12.78-7.54,8.85-19,12.12-29.83,8.49Z" style="fill: rgb(246, 231, 208);"/>
              <path class="cls-27" d="M132.22,270.87c1.84-6.94-1.96-13.97-8.49-15.7-6.53-1.74-13.32,2.48-15.16,9.42-1.84,6.94,1.96,13.97,8.49,15.7,6.53,1.73,13.32-2.48,15.16-9.42Z" style="fill: rgb(64, 51, 46);"/>
              <path class="cls-32" d="M153.16,283.58c-1.69-17.68-7.27-36.13-23.53-41.59-14.63-4.91-37.35,.96-44.74,14.44,21.43-.33,55.37,10.1,68.27,27.15Z" style="fill: rgb(223, 86, 86); mix-blend-mode: multiply; opacity: 0.5;"/>
              <path class="cls-19" d="M129.43,278.18c1.79-1.92,2.04-4.6,.55-5.99-1.49-1.39-4.14-.96-5.94,.95-1.79,1.92-2.04,4.6-.55,5.99,1.49,1.39,4.14,.96,5.94-.95Z" style="fill: rgb(255, 255, 255);"/>
              <path class="cls-21" d="M131.06,267.75c-.1-.8-.89-1.37-1.76-1.26-.87,.11-1.5,.85-1.4,1.65,.1,.8,.89,1.37,1.76,1.26,.87-.11,1.5-.85,1.4-1.65Z" style="fill: rgb(255, 254, 240);"/>
              <path class="cls-6" d="M87.35,250.41c5.52-6.5,46.56-8.31,65.41,29.6,0,0,5-33.07-22.33-42.24-31.84-10.69-43.08,12.65-43.08,12.65Z" style="fill: rgb(186, 155, 133); stroke: rgb(35, 31, 32); stroke-miterlimit: 10; stroke-width: 2px;"/>
              <path class="cls-5" d="M87.35,250.41c-2.05,3.45-3.08,5.87-3.08,5.87,5.76-6.78,46.19-3.05,68.49,25.76,0,0,.83-.55,1.23-3.93-18.67-33.39-54.47-32.98-66.63-27.69Z" style="fill: rgb(135, 111, 98); stroke: rgb(35, 31, 32); stroke-miterlimit: 10; stroke-width: 2px;"/>
            </g>
          </g>
          <path class="cls-34" d="M140.82,475.21c-4.16-1.26-8.39-2.36-12.73-3.09-9.88-1.65-25.63-3.46-34.35-.12-13.34,5.11,57.38,26.67,85.31,22.29,27.93-4.38,35.85-7.87,26.78-11.79-8.5-3.67-44.37-1.01-65.01-7.29Z" style="fill: rgb(114, 102, 88); opacity: 0.36;"/>
        </g>
      </g>
    </g>
  </g>
</svg>